<svg xmlns="http://www.w3.org/2000/svg" viewBox="0 0 385.22 434.182">
  <defs>
    <style>
      .cls-1 {
        fill: #72193a;
      }

      .cls-2 {
        fill: #f3e0eb;
      }

      .cls-3 {
        fill: #731839;
      }

      .cls-4 {
        fill: #711939;
      }

      .cls-5 {
        fill: #72193b;
      }

      .cls-6 {
        fill: #6b1e3a;
      }

      .cls-7 {
        fill: #65233b;
      }

      .cls-8 {
        fill: #65273e;
      }

      .cls-9 {
        fill: #711f2a;
      }

      .cls-10 {
        fill: #643446;
      }

      .cls-11 {
        fill: #5f3042;
      }

      .cls-12 {
        fill: #622a3f;
      }

      .cls-13 {
        fill: #642d41;
      }

      .cls-14 {
        fill: #6b361a;
      }

      .cls-15 {
        fill: #673546;
      }

      .cls-16 {
        fill: #64273d;
      }

      .cls-17 {
        fill: #613b48;
      }

      .cls-18 {
        fill: #6f4353;
      }

      .cls-19 {
        fill: #673547;
      }

      .cls-20 {
        fill: #865869;
      }

      .cls-21 {
        fill: #582437;
      }

      .cls-22 {
        fill: #5f3143;
      }

      .cls-23 {
        fill: #6a374b;
      }

      .cls-24 {
        fill: #735a64;
      }

      .cls-25 {
        fill: #795a67;
      }

      .cls-26 {
        fill: #5f2d3e;
      }

      .cls-27 {
        fill: #72676b;
      }

      .cls-28 {
        fill: #69272b;
      }

      .cls-29 {
        fill: #fae6f3;
      }

      .cls-30 {
        fill: #f9e8ac;
      }

      .cls-31 {
        fill: #e3b7cc;
      }

      .cls-32 {
        fill: #c37a95;
      }

      .cls-33 {
        fill: #6e1c3a;
      }

      .cls-34 {
        fill: #f7da1b;
      }

      .cls-35 {
        fill: #68213b;
      }

      .cls-36 {
        fill: #70250f;
      }

      .cls-37 {
        fill: #f4c843;
      }

      .cls-38 {
        fill: #6e2b0a;
      }

      .cls-39 {
        fill: #f8df13;
      }

      .cls-40 {
        fill: #fbf4c4;
      }

      .cls-41 {
        fill: #f9f4b9;
      }

      .cls-42 {
        fill: #ede355;
      }

      .cls-43 {
        fill: #fefefe;
      }

      .cls-44 {
        fill: #f7cc42;
      }

      .cls-45 {
        fill: #f7cd3d;
      }

      .cls-46 {
        fill: #f8e010;
      }

      .cls-47 {
        fill: #643344;
      }

      .cls-48 {
        fill: #6d2d0e;
      }

      .cls-49 {
        fill: #6d2d0c;
      }

      .cls-50 {
        fill: #eec143;
      }

      .cls-51 {
        fill: #73310b;
      }

      .cls-52 {
        fill: #763411;
      }

      .cls-53 {
        fill: #efc346;
      }

      .cls-54 {
        fill: #713405;
      }

      .cls-55 {
        fill: #f4cc3b;
      }

      .cls-56 {
        fill: #edbc53;
      }

      .cls-57 {
        fill: #f4cb3b;
      }

      .cls-58 {
        fill: #702f0c;
      }

      .cls-59 {
        fill: #f1bd54;
      }

      .cls-60 {
        fill: #753113;
      }

      .cls-61 {
        fill: #f2c151;
      }

      .cls-62 {
        fill: #f5c64a;
      }

      .cls-63 {
        fill: #eaae67;
      }

      .cls-64 {
        fill: #ecbe4b;
      }

      .cls-65 {
        fill: #f0c149;
      }

      .cls-66 {
        fill: #f0bc5a;
      }

      .cls-67 {
        fill: #753013;
      }

      .cls-68 {
        fill: #e5a658;
      }

      .cls-69 {
        fill: #f0bd50;
      }
    </style>
  </defs>
  <g id="Camion" transform="translate(0.04 0.034)">
    <path id="Tracé_1" data-name="Tracé 1" class="cls-1" d="M370.34,426.88c18.89.24,37.38,3.78,56,6.62,23.17,3.55,46.11,8.69,69.44,10.93,21.38,2.05,42.93,1.68,64.41,1.69,33.5,0,67-.16,100.48,0,4,0,5.47-1.43,6.39-5,4.8-18.33,5.81-37.11,7-55.89.11-1.86-.15-3.06-2.51-3.29-44.05-4.35-88-10.28-132.35-10.73a76.4,76.4,0,0,0-10.43.93c-3.56.47-5.27,2.43-4.58,6.21a226.821,226.821,0,0,0,11.27,40.73c1.88,4.91,5.85,8,11.36,9.32-2.61,2-5.66,2.17-8.25,3.38-3.09,1.44-4.73.23-6-2.73-4.69-10.86-7.79-22.24-11-33.56-2.45-8.58-6.39-16.76-6.69-26-.16-4.79.87-6.63,6.13-6.65,28.84-.08,57.6,1.76,86.35,3.65,20.27,1.34,40.51,3,60.77,4.47,5.81.44,11.6,1.07,17.42,1.38,3,.16,4,1.24,3.78,4.29-.59,7.29-.9,14.6-1.33,21.91,0,7.81-2,15.38-3.15,23-1.59,11-5.11,21.63-8.37,32.26-1.2,3.9-4.32,4.7-7.91,4.64-18.64-.26-37.24,1.35-55.9,1.16-13.79-.15-27.58,1.24-41.4.88-22.44-.59-44.86-1.78-67.29-2.76-8.79-.38-17.58-.78-26.36-1.33-15.46-1-30.54-4.53-45.69-7.55-1.14-.22-2.27-.48-3.43-.6-15.1-3.4-30.28-6.32-45.66-8.24-12.07-1.51-24.24-1.15-36.31-2.41-2.41-.25-3.82.77-3.9,3.33,0,1-.05,2-.06,3-.16,11.19.85,12.36,11.14,10.87A176.421,176.421,0,0,1,385,453.53c26.82.94,43.6,16.72,46.33,41.72.79,7.27,1.31,14.57,2.16,21.84a94.078,94.078,0,0,0,2,13.79c3.45,16.65,12.72,24.86,29.69,25.48,10.94.4,21.95.92,32.86-.68,4.49-.65,8.93.19,13.41.06,16.94-.48,33.86-1.72,50.82-1.33a2.63,2.63,0,0,1,1.79.72q28.13-.61,56.24-1.25c13.61-.32,27.21-.71,40.82-1,4.61-.11,8.92-.85,12-4.73.93-.18,1.57-.11.94,1.08-.85,2.07-2.89,3-4.24,4.65-2.86,4.07-7.36,4.21-11.61,4.5-5.64.39-11.31.09-17,.14a15,15,0,0,0-5.42.58c-9-.09-17.95,1.52-27,1.32a13.519,13.519,0,0,0-4.85.65c-23.89,1.58-47.74,3.56-71.6,5.57-21.71,1.83-43.44,3.46-65.13,5.57-3.71.36-7.3-.45-10.95-.51-1.42-.05-2.5-1.11-3.86-1.31-5.74-1.31-11.26-3.19-15.92-6.9-2.55-2-4.06-1.43-5.37,1.29a71.581,71.581,0,0,1-6.53,10.64c-1.41,1.94-2.73,5.5-5.31,4.28-2.74-1.29-.67-4.45.12-6.7,1.65-4.73,3.06-9.51,4.34-14.35s1.92-9.41-.59-14.06c-1.11-2-1.08-4.5-1.31-5.74a50.319,50.319,0,0,1-10.13,25.07c-.79,1.06-2,2.13-3.41,1.15-1.59-1.12-.78-2.77-.18-4.08,3.53-7.69,4.86-15.89,5.87-24.18,1.31-10.79-.37-21.24-3.58-31.49-1.13-3.62-3.17-7-7.48-7.05s-6.33,3.32-7.84,6.74a63.459,63.459,0,0,0-4.67,16.29c-.24,1.61-.16,3.34-1.7,4.85-2.14-.9-2.69-2.85-2.66-4.75.07-6,.07-12,2.16-17.77,2.24-6.2,5.34-11.82,12.53-12.9s12,2.93,16,8.14c-1.07-3.62-1.6-7.54-3.09-11.21C410.06,478.9,404,473,394.54,471c-5.39-1.15-10.88-1.43-16.31-2.28-7.06-1.59-14.13-.54-21.18,0-4.12.3-8.22.84-12.35.81-2.33.64-4.64,1.39-6.22,1.07-1.55.27-.64,1.19-.93.58,2.37-1.08,5.07-.67,7.47-1.62,9.27-.14,18.44-1.93,27.74-1.51,2.13.09,4.46-.28,5.25,2.56-.18,8.33-2.44,16.42-2.88,24.76-.28,5.31-.5,10.63-.69,15.95-.07,13.25-.18,26.49.94,39.71.23,2.81,1.09,5.51,1.07,8.36,0,3.76-1.32,6.11-5.47,6-11.62-1.6-23.27-3.05-35-4.23-4.11-.41-6.42.45-8.29,4.19-1.56,3.11-3.29,6.65-7.73,6.72v-6a13.359,13.359,0,0,0,1.26-1.45c3.3-4.25,3.3-4.25-1.26-6.55v-9c1.85-1.61,4-1.25,6.17-1,9.77.93,19.5,2.23,29.27,3.22,5,.51,6.06-.08,6-4.66-.35-19.13,1.5-38.22,1.07-57.35-.14-6.37-.12-6.25-6.5-5.89-9.46.55-18.91,1.23-28.35,2.12-2.61.24-5.36.51-7.64-1.4V473c4.88.51,5.85-1.81,5.93-6.43.93-56.07,3.5-112.07,8.22-167.95,1.83-21.69,4.26-43.32,7.9-64.8.22-1.3.67-2.56,1-3.84,2.34-6.59,2.81-13.64,4.93-20.29.24-.77.34-1.62.51-2.44.26-1.19.71-2.41,2.15-2.24,1.6.18,2.17,1.43,1.95,2.94-.42,2.8.35,5.67-.51,8.44-1.43,14.2-2.83,28.41-4.3,42.61q-5,48.38-7,97c-1,23.28-1,46.55-.67,69.83,1.91,1.43,4.1.62,6.15.69C354.29,426.76,362.33,426,370.34,426.88Z" transform="translate(-320 -156.16)"/>
    <path id="Tracé_4" data-name="Tracé 4" class="cls-2" d="M320,558c2.05.24,5.19-.62,5.77,1.4s-2,3.93-3.62,5.52A8.181,8.181,0,0,1,320,566Z" transform="translate(-320 -156.16)"/>
    <path id="Soustraction_3" data-name="Soustraction 3" class="cls-3" d="M642.442,642.489h0a156.712,156.712,0,0,0-26.588-7.371c-8.986-1.742-18.179-2.963-27.07-4.144l-.028,0-.132-.017-.023,0c-5.839-.777-11.874-1.58-17.778-2.521-24.835-3.948-51.308-6.979-83.31-9.54-15.732-1.269-31.778-1.764-45.4-2.08-.065,0-.141,0-.234-.005h-.03c-.071,0-.139,0-.207,0a1.38,1.38,0,0,0-1.39.951c7.512,3.752,15.747,5.337,23.71,6.87l.009,0,.034.006.417.08c.742.143,1.584.305,2.379.461,13.66,2.687,27.252,4.8,40.4,6.27a16.821,16.821,0,0,1,2.88.81c3.815,1.654,7.921,2.128,11.893,2.587h.006c2.123.245,4.318.5,6.462.932.251.023.5.034.74.034s.49-.012.74-.034c1.384,0,3.059.416,3.181,2.4a1.941,1.941,0,0,1-.418,1.5,2.443,2.443,0,0,1-1.785.55c-.294,0-.588-.019-.887-.04H530l-.082-.005c-2.014-.138-4.039-.2-6-.26l-.094,0h-.008c-3.012-.091-6.126-.185-9.18-.547-11.128-.341-22.34-1.671-33.182-2.957h-.015l-.055-.006c-5.027-.6-10.223-1.212-15.387-1.725-3.143-.311-6.24-.712-9.236-1.1h-.008l-.025,0c-3.614-.467-7.348-.95-11.052-1.267a34.661,34.661,0,0,1-13.172-3.627,29.811,29.811,0,0,1-10.247-8.893,7.86,7.86,0,0,0-3.1-2.662,10.371,10.371,0,0,0-4.012-.817,197.476,197.476,0,0,1-25.016-2.577,140.86,140.86,0,0,1-24.364-6.364c-4.281-1.548-6.16-3.92-6.7-8.46a222.015,222.015,0,0,1-1.777-30.849A143.427,143.427,0,0,1,361,537.379c.185-.78.294-1.643-.769-2-2.176.249-3.5.942-4.3,2.246-.729,1.185-.986,2.79-1.185,5.163-.32,3.773-.411,7.6-.5,11.292v.095c-.089,3.684-.181,7.492-.5,11.232-.165,2.015-.34,4.045-.494,5.836l-.025.3c-.744,8.65-1.514,17.592-1.652,26.428,0,2.785-.128,5.075-1.74,7.07-.989,1.214-1.818,1.779-2.609,1.779-.743,0-1.444-.494-2.141-1.51-.314-13.17.059-26.513.419-39.416v-.022l0-.056c.177-6.325.36-12.865.459-19.386a9.523,9.523,0,0,0,0-2c-1.048-4.913-.5-8.773,1.673-11.8,1.976-2.751,5.258-4.851,10.327-6.61,3.841-1.336,7.671-2.869,11.375-4.351l.011,0,.018-.007c4.785-1.915,9.734-3.894,14.729-5.463a69.829,69.829,0,0,1,15.466-3.175c.805-.063,1.655-.093,2.674-.093.837,0,1.7.019,2.543.038l.142,0h.006c1.1.025,2.241.051,3.525.051a54.9,54.9,0,0,1-10.371-13.93,49.542,49.542,0,0,1-4.87-14.07c-.375-2.026-.216-3.429.5-4.414a5.234,5.234,0,0,1,3.778-1.766,231.705,231.705,0,0,1,25.86-1.72l.226,0,.267,0c4.629-.068,9.875-.145,15.045-.145,10.243,0,18.527.314,26.068.987a155.377,155.377,0,0,1,25.8,4.346c.782.2,1.556.468,2.3.724l.014,0,.036.013.185.063c.249.085.507.173.76.255,1,1.682,2.611,2.476,5.08,2.5,3.827,0,7.479,1.1,11.011,2.164a57.077,57.077,0,0,0,7.229,1.837,7.7,7.7,0,0,1,2.433.73,1.97,1.97,0,0,1,1.1,2.02c-.143,1.682-1.769,1.774-3.2,1.855l-.055,0c-.257.014-.507.029-.742.052-.913.067-1.833.1-2.736.1-.422,0-.848-.007-1.265-.022-3.745-.584-7.661-1.213-10.807-1.719h-.007l-.193-.031c-3.258-.523-6.948-1.115-10.493-1.669a259.451,259.451,0,0,0-39.059-3.54,78.242,78.242,0,0,1-7.894-.532l-.029,0c-1.7-.173-3.618-.368-5.477-.465-.876-.039-1.807-.059-2.768-.059-3.664,0-7.36.294-10.933.578l-.038,0H425.2c-3.589.286-7.3.581-10.979.581-.915,0-1.8-.018-2.64-.054-.156-.006-.306-.009-.445-.009a7.319,7.319,0,0,0-2.772.474,3.5,3.5,0,0,0-1.982,1.854c-.773,1.789-.219,3.892,1.56,5.92.7.809,1.4,1.656,2.111,2.525,3.457,4.195,7.032,8.532,12.509,10.616a62.146,62.146,0,0,0,18.3,2.752l.323,0h.037A310.273,310.273,0,0,1,476.93,514.4c11.811,1.469,23.763,3.426,35.323,5.318l.038.006h.005l.023,0,.233.038c4.477.733,9.107,1.492,13.778,2.227,3.16.5,6.357,1.044,9.449,1.573l.016,0,.154.026.216.037.034.006h.007c4.991.855,10.152,1.738,15.274,2.443a34.887,34.887,0,0,0,6.143,1.281,30.825,30.825,0,0,1,6.987,1.589,12.464,12.464,0,0,0,5.9,1.912h.007c.656.1,1.4.2,2.1.347,3.5.72,7.112,1.508,10.294,2.2l.045.01.033.007c7.863,1.717,15.994,3.492,24.107,4.711,1.654.248,3.366.6,4.876.906l.045.009a49.01,49.01,0,0,0,9.72,1.312c.643,0,1.282-.026,1.9-.077a12.721,12.721,0,0,1,2.981-.354c.119,0,.223,0,.319,0a4.864,4.864,0,0,1,3.15,1.3,16.061,16.061,0,0,0,5,7.7,39.364,39.364,0,0,1,10.57,15.286,67.356,67.356,0,0,1,4.059,18.144c.2,1.877.4,3.747.614,5.657a240.837,240.837,0,0,1,1.937,26.692,15.636,15.636,0,0,1-1.826,7.8,12.829,12.829,0,0,1-5.765,5.2,6.158,6.158,0,0,0-3.347,3.07,7.1,7.1,0,0,0-.063,4.36c.382,1.678.622,3.407.854,5.079v.012c.1.727.209,1.5.324,2.237Zm-186.8-38.367c15.7,0,29.877.293,43.353.9,12.948.556,23.641,1.113,33.653,1.752,12.137.775,23.111,1.666,33.548,2.723a547.026,547.026,0,0,1,66.518,10.526,9.032,9.032,0,0,0,.2-4.871c-.025-.179-.049-.353-.074-.529a370.4,370.4,0,0,0-12.62-58.35c-1.107-3.606-2.824-5.2-6.56-6.09-23.543-5.654-47.794-9.712-71.247-13.636l-.018,0-.014,0-.172-.029-6.084-1.03-.094-.016-.012,0c-19.289-3.272-39.235-6.655-58.941-8.4-4.11-.364-8.29-.652-12.333-.93l-.07,0-.07-.005h-.031c-8.689-.6-17.673-1.218-26.389-2.6a119.279,119.279,0,0,1-12.985-2.758,89.061,89.061,0,0,1-12.711-4.506,6.829,6.829,0,0,0-.22,1.65c.52,3.448,1.049,6.992,1.516,10.118l.2,1.333.01.068.226,1.514.008.053,0,.013V531c1.889,12.655,3.842,25.741,5.938,38.646.486,2.947.828,5.962,1.158,8.878l0,.026c.825,7.3,1.679,14.839,4.839,21.816a7.208,7.208,0,0,0,2.105,2.974,5.735,5.735,0,0,0,3.584.978l.175,0C440.545,604.187,448.265,604.122,455.646,604.122ZM628.818,548.7c1.489,8.657,3.4,17.184,5.251,25.43v.006c3.31,14.76,6.437,28.7,7.389,43.453,2.926-1.352,2.827-3.688,2.74-5.75-.346-7.622-.72-15.369-1.081-22.862v-.02l-.035-.732v-.03c-.3-6.189-.672-13.892-1.011-21.256A6.3,6.3,0,0,0,640.6,563.3c-2.614-3.276-5.3-6.591-8.14-10.1l-.091-.113-.022-.026-1.063-1.313-2.464-3.046Zm-245.14-20.578c-1.122,0-2.587.635-4.609,2a26.2,26.2,0,0,0-6.613,5.133,25.332,25.332,0,0,0-4.272,6.4,41.417,41.417,0,0,0-3.424,15.327c-.532,9.292.638,18.717,1.769,27.832q.187,1.5.371,3.009l.035.292c.536,4.436.8,6.663,2.026,8.028s3.369,1.835,7.719,2.68c6.06,1.184,12.251,2.242,18.239,3.266,4.633.792,9.424,1.611,14.131,2.484a14.663,14.663,0,0,0,2.571.31c.9,0,1.457-.2,1.745-.64.434-.66.251-1.861-.576-3.781a18.059,18.059,0,0,1-1.81-8.71c-.341-5.634-1.132-11.315-1.9-16.809-.426-3.059-.866-6.222-1.224-9.34-.744-6.39-1.895-12.825-3.007-19.048-1.011-5.652-2.055-11.492-2.792-17.282a5.936,5.936,0,0,0-1.944-3.917,6.493,6.493,0,0,0-4.3-1.342,12.128,12.128,0,0,0-1.268.07,4.021,4.021,0,0,0-3.065,1.38c-.8,1.146-.459,2.8.065,4.839a14.812,14.812,0,0,0,.34,1.949l.06,1a7.162,7.162,0,0,0-.95,4.781,433.76,433.76,0,0,1-.18,51.78c.24-9.358.122-18.419-.352-26.933a241.653,241.653,0,0,0-3.4-29.648C386.438,529.649,385.424,528.121,383.678,528.122Z" transform="translate(-267.079 -438.409)"/>
    <path id="Tracé_6" data-name="Tracé 6" class="cls-4" d="M356.15,397c-2.54-38.71-4.69-77.47-1-116.18,2-21,7.24-41.57,10-62.47,1.42-10.83,6.84-16.79,15.61-22.06,14.67-8.83,28.88-18.46,44.32-25.91a138.54,138.54,0,0,1,84.51-12.28c32.59,5.39,65.12,11.16,97.05,19.85,13.5,3.68,26.66,8.18,38.52,15.83,1.38.89,3,1.42,3.92,3,2.3,4.28,2.17,4.9-1.18,5.3-11.13-3.13-22.2-6.46-33.39-9.34-30.47-7.81-61.26-14-92.69-16.15-19-1.32-38-.53-56.94-.36a22.11,22.11,0,0,0-8.23,1.81c-20.66,8.74-41.25,17.59-60.36,29.56a29,29,0,0,0-13.42,18.12c-8.82,32.53-13.25,65.77-16.91,99.16-2.82,25.65-4.46,51.39-6.12,77.14-.51,1-1,2.27-2.3,2-1.59-.28-.88-1.78-1-2.78C356.35,399.85,356.82,398.38,356.15,397Z" transform="translate(-320 -156.16)"/>
    <path id="Tracé_9" data-name="Tracé 9" class="cls-5" d="M512,530c-2.82,6.92-4.5,14.52-11.88,20,1.2-7.39,2.39-13.77,3.26-20.19,1.93-14.43,1.91-28.82-1.92-43-.94-3.49-.69-5.78,3.37-6.55,3.39-.64,8.85.35,9.14,4.1.22,2.81.41,5.63.46,8.46.2,11.8,0,23.58-2.16,35.23Z" transform="translate(-320 -156.16)"/>
    <path id="Tracé_10" data-name="Tracé 10" class="cls-6" d="M567.56,357.11c5,0,9.91,0,14.86-.16,1,0,2.69.83,2.72-1s-1.6-.83-2.59-1.07c-6.52-1.62-13.93.26-19.55-4.92,13,1.41,26,2.88,39.08,4.2,23.28,2.37,46.58,4.64,69.87,6.95a1,1,0,0,1,0,1.76c-22.81.72-45.55-.8-68.28-2.33-10.45-.71-20.89-1.67-31.33-2.55C570.73,357.86,569,358.32,567.56,357.11Z" transform="translate(-320 -156.16)"/>
    <path id="Tracé_11" data-name="Tracé 11" class="cls-7" d="M398,323a5.29,5.29,0,0,0,5.82-6.49c-1.84-7.6,2.06-14.66,1.27-22.08-.7-6.66,2.3-13.14.94-19.9-1.14-5.7,1.59-11.28.38-17.25-.79-3.89,3.21-4.72,6.72-4.21-3.43,1.52-4.17,4.22-4.38,7.85-1.28,22.41-2.81,44.81-4.36,67.2-.5,7.21-.33,7.68,6.93,8.77,12.68,1.91,25.47,2.54,38.27,3.09,1.7.07,3.75-.8,5.13,1.73a143,143,0,0,1-43.91-.64,1.42,1.42,0,0,0-1-.94c-7.89-.92-8-1-8.65-8.3.3,1.08-.25,2.5-.07,3.93a4.437,4.437,0,0,1-1.08,4.09c-1.78.28-3.09-.31-2.8-2.27C397.93,332.76,396.7,327.82,398,323Z" transform="translate(-320 -156.16)"/>
    <path id="Tracé_12" data-name="Tracé 12" class="cls-8" d="M352.1,216.39c0-2.81-.07-5.61-.13-8.41,0-1-.3-2.22-1.44-2.25s-1.41,1.16-1.5,2.19c-.65,6.87-3.87,13.22-4.08,20.19,0,1.19-.77,1.73-1.88,1.87,1.33-12.73,5.67-24.73,8.73-37,1.35-5.47,3.77-7.33,9.12-6.88,3.94.33,7.94-.1,11.91-.19,2.42-.13,5-1.54,7.08.95-6.35,1-12.67,2.55-19.06,2.95-4.49.27-5.36,2.45-5.81,6.1C354.21,202.72,353.1,209.54,352.1,216.39Z" transform="translate(-320 -156.16)"/>
    <path id="Tracé_13" data-name="Tracé 13" class="cls-9" d="M616,218c-11.08-3.89-22.63-6.06-33.95-9A261.269,261.269,0,0,0,554,202.71h0l-7-1.6c.57,3.43,3,3.86,5.91,3.93,7.13.16,13.35,3.93,20.4,4.49l-.15,1.46H566a1.7,1.7,0,0,0-.36,1.6,3,3,0,0,0,1.15,1.25c11.6,2.27,23.23,4.35,35,5.53a60.884,60.884,0,0,1,7.39.63c2.43.2,5.47,1.21,7-1.91Z" transform="translate(-320 -156.16)"/>
    <path id="Tracé_14" data-name="Tracé 14" class="cls-10" d="M356.15,397c1.28,1.18.88,2.75.86,4.18,0,3.91,1.69,1.24,2.83.8-.27,6.95-.4,13.9-.89,20.84-.21,2.93.7,3.75,3.51,3.64,2.61-.1,5.3-.52,7.88.4l-27.25.14c-1.15,0-2.36.09-3-1.23,5,.11,9.94.06,14.88.39,2.92.2,3.15-.92,2.93-3.43C357.19,414.19,356.72,405.6,356.15,397Z" transform="translate(-320 -156.16)"/>
    <path id="Tracé_15" data-name="Tracé 15" class="cls-11" d="M564.27,397.11c1,.21,2.14-.33,2.77,1.31,1.1,2.86,1.34,2.83,3.12.15a1.75,1.75,0,0,1,2-1c1.09.21,1,1.14,1.05,1.94a48.059,48.059,0,0,1-.05,5c-.11,1.5,1,3.87-1.18,4.2-2.68.41-1.56-2.22-1.89-3.6-.21-.87-.43-1.64-1.49-1.55-1.7.13-1.51,1.48-1.52,2.6,0,1.51.13,3.1-1.86,3.48-1.22.24-1.12-.88-1.39-1.59C562.13,404.3,561.66,400.64,564.27,397.11Z" transform="translate(-320 -156.16)"/>
    <path id="Tracé_16" data-name="Tracé 16" class="cls-12" d="M647.9,202.06c3.82-1,0-3.71,1.18-5.3,8.67,5,11.73,13.2,12.87,22.51C658.16,212.77,655.57,205.36,647.9,202.06Z" transform="translate(-320 -156.16)"/>
    <path id="Tracé_17" data-name="Tracé 17" class="cls-13" d="M589,399c.85-1,2-1.5,3.1-.86,1.6,1-.37,1.86-.35,2.88a19.91,19.91,0,0,1-.64,2.37c-.21,1.39-.07,2.93,1.65,3.05s1-1.62,1.38-2.58c.69-1.91-1.55-5.67,1.68-5.54,2.8.12,1.16,3.83,1.26,5.86.29,5.91-1.08,6.47-8.18,3.86C585.56,405,586.23,402,589,399Z" transform="translate(-320 -156.16)"/>
    <path id="Tracé_18" data-name="Tracé 18" class="cls-14" d="M672.76,235.34l4.22,5.71c2.43,5.83,5.69,11.39,6,17.93l-3.39-.24c-2.4-1.59-1.94-4.4-2.7-6.65-1.62-4.83-3.84-9.42-5.55-14.21a2.25,2.25,0,0,1,1.42-2.54Z" transform="translate(-320 -156.16)"/>
    <path id="Tracé_19" data-name="Tracé 19" class="cls-15" d="M610.66,405.49c1.25,1.91,2.37,1.36,3.26,1.62,1.66.49,1.77,1.68.53,2.42-1.63,1-3.6.27-5.35,0s-1.28-2-1.27-3.27-.13-2.68,0-4-.82-3.41,1.11-3.84c1.69-.37,3.6.19,5.41.4.22,0,.39.48.59.74,0,1.48-3.24.76-4,1.48-.89.91.4,2,1,2C614,403,614.43,406,610.66,405.49Z" transform="translate(-320 -156.16)"/>
    <path id="Tracé_20" data-name="Tracé 20" class="cls-16" d="M659.44,403.19c.73,1.66,3.54-.15,3.32,2.31-.19,2.12-2.61.81-3.56,1.95.5,2.66,3.53.27,4.4,2.4-1.79,2.63-4.59,1.34-6.67.93s-1.18-3-.82-4.29c.64-2.31-2.84-7,3.25-6.49,1.27.11,3.48-1,3.64,1.24S660.47,402,659.44,403.19Z" transform="translate(-320 -156.16)"/>
    <path id="Tracé_21" data-name="Tracé 21" class="cls-3" d="M400,339.87V326.36c3,2,2.15,4.78,2.61,6.91.8,3.65.57,7.73,6.38,5.84.9-.29,3.5-.77,1.85,2A34.2,34.2,0,0,1,400,339.87Z" transform="translate(-320 -156.16)"/>
    <path id="Tracé_22" data-name="Tracé 22" class="cls-17" d="M629.18,400.08a4.984,4.984,0,0,1,4.6-.89,2.18,2.18,0,0,1,1.39,1.12c.38,1-.31,1.34-1.23,1.58-4.5,1.19-2.6,3.15-.72,5.34.68.79,3.28-.05,2.1,2.25-.88,1.72-2.28.53-3.44.3a6.689,6.689,0,0,1-1.73-.87C626.64,405.76,626.41,403.69,629.18,400.08Z" transform="translate(-320 -156.16)"/>
    <path id="Tracé_23" data-name="Tracé 23" class="cls-18" d="M648,400c2.5-1.28,3.23-.23,3.25,2.25s-1.25,5.62,3.06,6.56c1.36.3.5,2.11-.94,2.12-1.87,0-3.94.75-5.56-.91C646.54,406.67,647.41,403.34,648,400Z" transform="translate(-320 -156.16)"/>
    <path id="Tracé_24" data-name="Tracé 24" class="cls-19" d="M599.09,403.3c0-.83-.05-1.65,0-2.47.09-1.2-.5-2.89,1.69-2.74,1.75.11,1.25,1.52,1.43,2.59.43,2.49-1.7,6.18,3.36,6.6,1,.09.09,1.58-.85,2C601,410.68,599.1,408.68,599.09,403.3Z" transform="translate(-320 -156.16)"/>
    <path id="Tracé_25" data-name="Tracé 25" class="cls-20" d="M587,399.13h0a4.1,4.1,0,0,0-6.25-.09c-2,2-1.58,4.86,0,7,1.45,1.92,3.23,4.3,6.19,1.86a4.812,4.812,0,0,0-.21-1C581.64,402.56,581.63,402.26,587,399.13Z" transform="translate(-320 -156.16)"/>
    <path id="Tracé_26" data-name="Tracé 26" class="cls-21" d="M578.4,403.36c-.87,2,1,5.13-1.65,5.2-2.87.07-1.53-3.15-1.48-4.78.07-2-1.47-5.75,1.4-5.74C579.84,398.05,577,401.88,578.4,403.36Z" transform="translate(-320 -156.16)"/>
    <path id="Tracé_27" data-name="Tracé 27" class="cls-22" d="M558.17,404.81c.54-1.78,3.68.23,3.55-2.16-.1-1.77-2.83-.57-3.31-2.22.6-1.1,2.4-.27,3.3-.87a5.42,5.42,0,0,1,.5-1.61c-2.22-1.74-4.82-.57-7.21-.94a10.42,10.42,0,0,0,0,11c2.55-.26,5.14,1.83,7.65-.14C562.93,404.23,558.68,407.41,558.17,404.81Z" transform="translate(-320 -156.16)"/>
    <path id="Tracé_28" data-name="Tracé 28" class="cls-23" d="M554,397c-4.87-.91-2.41,4.21-4.69,5.46-.31-1-.74-2.06-1-3.18-.28-1.35-.41-2.83-2.33-2.32s-.76,1.81-.53,2.79c.43,1.94,1,3.85,1.43,5.79.76,3.73,2.68,3,4.91,1.37Z" transform="translate(-320 -156.16)"/>
    <path id="Tracé_29" data-name="Tracé 29" class="cls-24" d="M379.91,186.81c-2.19-1.58-4.79-.13-7.08-.95,5-1.22,10.07-.83,15.19-.21Z" transform="translate(-320 -156.16)"/>
    <path id="Tracé_30" data-name="Tracé 30" class="cls-25" d="M672,362.88v-1.76c3.31-.43,6.45.54,9.63,1.76Z" transform="translate(-320 -156.16)"/>
    <path id="Tracé_31" data-name="Tracé 31" class="cls-26" d="M627,400.43a1.681,1.681,0,0,1,.11-.47c-.39-1-1.33-.94-2.12-1.18l-5,.15c0,1.47-.13,2.94-.12,4.41.07,7.21-1.79,6.82,7.13,6.64h0v-1.3c-.48-1.58-3.48.09-3.86-1.76-.14-2.16,3.9-.11,3.16-2.83-.42-1.55-2.48-.5-3.29-1.7C623.61,400.47,626.38,402.22,627,400.43Z" transform="translate(-320 -156.16)"/>
    <path id="Tracé_32" data-name="Tracé 32" class="cls-27" d="M674,549.22l-.94-1.08c.78-1.88,1.56-3.76,2.53-6.08C676.87,545.28,675.6,547.29,674,549.22Z" transform="translate(-320 -156.16)"/>
    <path id="Tracé_36" data-name="Tracé 36" class="cls-28" d="M455.11,571.21c-.22,3.82-2.64,6.72-4.15,10-.45,1.06-.42,2.47-2,2.73-3.9,4-8.53,5.41-14.23,5.37-11.9-.1-23.82.56-35.73.88-1.75,0-3.71.69-5-1.27,1.42-3.51,4.58-2.06,6.84-2,6.12.19,12.23-1.09,18.35,0a4.29,4.29,0,0,0,3.76-.88c4.12-.45,8.24-.86,12.35-1.36,9.19-1.12,14.86-6.25,17.33-15.59A2.063,2.063,0,0,1,455.11,571.21Z" transform="translate(-320 -156.16)"/>
    <path id="Tracé_37" data-name="Tracé 37" class="cls-29" d="M373.16,511h2.95c1.62,1.81,1.45,4,1.18,6.14-1.62,12.8-.76,25.5,1.13,38.19.34,2.21,1.32,4.57-.53,6.65-2.4,1.54-4.29,5.13-7.88,2,4.74,1.1,5.35-1.28,4.92-5.31A324.847,324.847,0,0,1,373.16,511Z" transform="translate(-320 -156.16)"/>
    <path id="Tracé_38" data-name="Tracé 38" class="cls-30" d="M584,564.93a3.46,3.46,0,0,1,3.71-1.9c7.19.7,14-2.25,21.1-2.69l-4.81-.49a275.649,275.649,0,0,1,31.85-2,4.258,4.258,0,0,1,.48.13c.45.17.88.77.33.84-4.92.66-9.87,1.23-14.82,1.71-11.51,1.12-22.8,3.88-34.37,4.5A28.681,28.681,0,0,1,584,564.93Z" transform="translate(-320 -156.16)"/>
    <path id="Tracé_39" data-name="Tracé 39" class="cls-31" d="M379.19,467.8l-2,3.22c-.28-2.94-2.58-2-4.14-2-9.7.32-19.4.77-29.1,1.18a.73.73,0,0,1,.1-1.1c10.56-1.11,21.11-2.46,31.78-1.95C377,467.24,378.2,466.93,379.19,467.8Z" transform="translate(-320 -156.16)"/>
    <path id="Tracé_40" data-name="Tracé 40" class="cls-32" d="M344.08,469.14a10.214,10.214,0,0,1-.1,1.1c-2.29,1.51-4.68.75-7.11.1Z" transform="translate(-320 -156.16)"/>
    <path id="Tracé_41" data-name="Tracé 41" class="cls-33" d="M377.89,562a170.591,170.591,0,0,1-1.78-51c2.83-11.08,5.64-22.17,13.95-30.78,1.6-1.65,3-3.49,5.49-4.33.13.54.48,1.16.31,1.37-9.12,11.21-11.9,24.63-13.38,38.47-2,18.26-.53,36.2,5.68,53.56,5,14.05,9.12,16.79,23.88,16.84,3.66,0,7.32,0,11-.07-1.59,3.57-4.45,1.73-6.8,1.46-7.48-.86-14.78.67-22.15,1.38a6.3,6.3,0,0,0-.75.05C385.78,581.35,381,572.14,377.89,562Z" transform="translate(-320 -156.16)"/>
    <path id="Tracé_44" data-name="Tracé 44" class="cls-34" d="M604.64,245.11c-14.28-2.2-28.57-4.32-42.83-6.64C539,234.76,516.19,231,493,231.14c-6.12,0-12.21-.46-17.83-3.31a38.341,38.341,0,0,1-8.91-7.08c-1.24-1.21-2.37-2.37-1.62-4.29,1.35-2.37,3-2.57,4.65-.41,2.58,3.4,4.46,7.73,10,6.53a.48.48,0,0,1,.44.21c2.57,6.56,7.88,2.42,12,3.23,13.88,2.77,28.23,1.33,42,5a7,7,0,0,0,3.38.26c-1.19-2.55-1.19-5,1-7.06,1.76-1.11,2.77-.35,3.15,1.42.21,1,.1,2,1.2,2.44a10.1,10.1,0,0,1,2.15,1.44c1.48,1.88,3.76.16,5.43,1.19.44,1.57,1,2.75,2.44.67a6.61,6.61,0,0,1,5.42.24,3.16,3.16,0,0,0,3.59-.11c2-2.73,4.08-4.29,7-1.16a21.572,21.572,0,0,0,3.11,2.36c3.68,1.94,5.67,1.1,7.87-3.32a1.48,1.48,0,0,1,1.15-.66c3.47,4.79,7.58,8.35,14.08,7.32a4.15,4.15,0,0,1,4.45.79,7.27,7.27,0,0,0,4.83,1.82,11.41,11.41,0,0,1,2.92,0A3.56,3.56,0,0,1,609,241C609.33,244.3,608.48,246.26,604.64,245.11Z" transform="translate(-320 -156.16)"/>
    <path id="Tracé_46" data-name="Tracé 46" class="cls-35" d="M444.87,251c2.06,20.7,2.16,41.36-1.49,61.93-1.22-22.23-1.26-44.53-5.4-66.73l-6,1.66c.18-1.43-.78-3.57,2.08-3.34,3,.24,6.35.64,6.65,4.39S442.13,253,444.87,251Z" transform="translate(-320 -156.16)"/>
    <path id="Tracé_47" data-name="Tracé 47" class="cls-36" d="M464.69,217.2c2.41,4.59,7.16,6.9,10.44,10.63-5.4-.52-8-5-11.18-8.4-2.6-2.77-5.72-5.44-6.42-9.9-.42-2.72.35-3.64,2.45-4.4a6.39,6.39,0,0,1,1.91-.55c11.22-.2,22.4-2.49,33.64-1.12a65.736,65.736,0,0,0,7.9.51c15.89,0,31.55,2.23,47.24,4.52,5.13.75,10.08,2.65,15.34,2.5l-.12,1.13c-2,1.76-4.36,1.24-6.64.86a469.768,469.768,0,0,0-51.75-5.84c-9.28-.48-18.55-.42-27.81-.8-5-.2-9.86,1.1-14.85,1.2-4.28.09-3.12,2.76-1.74,5.15a10.57,10.57,0,0,1,1.59,4.51Z" transform="translate(-320 -156.16)"/>
    <path id="Tracé_48" data-name="Tracé 48" class="cls-37" d="M604.64,245.11c4,.24,3.42-2.53,3.29-5l.58-.33a2.86,2.86,0,0,0,3.37-1.42,3.42,3.42,0,0,1,3.36-.95,2.38,2.38,0,0,1,1.34,3c-.4,1.29-2.87.84-2.45,2.64.32,1.35,1.9,1.11,2.93,1.51a17.29,17.29,0,0,0,5.32,1.25,14.112,14.112,0,0,1,2.14.38c3.51.64,7.1.79,10.54,1.83,2.5.84,5.16.38,7.69,1,3.32.54,6.46,1.8,9.74,2.51,6.65,0,13,2.16,19.52,3,3.36.43,3.52-.61,2.59-3.06s-2.14-4.85-3-7.38c-.69-2.18-1.64-4.46.54-6.43a67.061,67.061,0,0,1,7.43,21L677,259c-4.21.94-8.06-1.11-12-1.77-16.06-2.67-32-6-47.92-9.44Z" transform="translate(-320 -156.16)"/>
    <path id="Tracé_49" data-name="Tracé 49" class="cls-35" d="M463.9,309.47c-1.95-11.71-4-23.42-5.83-35.15-1.48-9.31-2.92-18.63-4.1-28-.6-4.78-4-2.79-6.39-3-2.81-.3-3.35,1.28-2.84,3.71a15.341,15.341,0,0,1,.07,3,3.271,3.271,0,0,1-.59-.78c-.86-2.74-3-5.65-.31-8.27,2.33-2.26,5-.37,7.47.38,3.17,1,4.84,3,4.69,6.66-.21,4.83,1.93,9.26,2.95,13.87a72.68,72.68,0,0,1,2.15,14.81C461.3,287.63,465.4,298.32,463.9,309.47Z" transform="translate(-320 -156.16)"/>
    <path id="Tracé_50" data-name="Tracé 50" class="cls-38" d="M617,247.82c16,1.88,31.51,6,47.33,8.67,4.22.71,8.41,1.68,12.61,2.54-1,1.33-2.41,1.12-3.65.83-13.63-3.3-27.7-4.37-41.19-8.32C627.13,250.08,621.49,251.31,617,247.82Z" transform="translate(-320 -156.16)"/>
    <path id="Tracé_51" data-name="Tracé 51" class="cls-39" d="M496.2,481.05a191.768,191.768,0,0,0,1.18,32.32,53.94,53.94,0,0,1-1.56,21.6c-.77,2.21-2.22,4.07-3.19,6.18-.68,1.5-1.33,3.33-3.43,2.88-1.9-.41-1.54-2.23-1.71-3.69-1.06-9.17-.68-18.48-2.52-27.56-.76-3.73-.69-7.57-1.71-11.25a7.561,7.561,0,0,1-.22-1.71c-.37-5.4-.18-10.82-1.2-16.18-.94-4.94.35-9.78,1.28-14.61,1-3.22,3.58-4.94,6.45-4.38A291.652,291.652,0,0,0,524,468.88c27.15.62,54.3.23,81.42-.92,20.78-.88,41.54-2.11,62.3-3.17,3.07-.16,5.83,0,3.26,4.25-3.72,1.85-6.2,5.41-10.11,7.09a28.449,28.449,0,0,1-15.67,1.67c-11.24-1.66-22.55-1.42-33.81-1.7-30.1-.77-60.19.32-90.28,1-6.12.14-12.23,1-18.39,1C500.34,478.12,497.76,478.71,496.2,481.05Z" transform="translate(-320 -156.16)"/>
    <path id="Tracé_52" data-name="Tracé 52" class="cls-40" d="M496.2,481.05c.08-4.8,4.16-3.62,6.6-3.89,6.43-.71,12.92-1,19.4-1.07,29.43-.45,58.86-1.83,88.29-.83,11.93.4,23.9.27,35.81,1.56,8,.87,15.56-.44,21.65-6.4.83-.82,1.73-1.6,3-1.38-6.71,8.28-15.4,11.37-25.83,9.78A138.338,138.338,0,0,0,624.44,477H549.68c-1.91,0-4-.74-5.7.91-13.39,0-26.8-.24-40.15,1.11C501.25,479.34,498.74,480.38,496.2,481.05Z" transform="translate(-320 -156.16)"/>
    <path id="Tracé_53" data-name="Tracé 53" class="cls-41" d="M524,468.88a84.241,84.241,0,0,1-29.09-2.74C490.8,465,486.64,464.2,484,469c-.52.58-.8,1.59-1.94,1.08.17-4.33,2.62-6,6.74-6.15a34.62,34.62,0,0,1,10.29,1.31c6.46,1.74,13.05,1.94,19.68,1.82C520.72,467,522.83,466.67,524,468.88Z" transform="translate(-320 -156.16)"/>
    <path id="Tracé_54" data-name="Tracé 54" class="cls-41" d="M480,492V473.05c.64-.69,1.28-1.39,1.93-2.08,1.5,5.74-.12,11.64,1,17.42.81,4.16.14,8.47,1,12.66h0a19.119,19.119,0,0,1,.07,10,36.821,36.821,0,0,1-2-12C481.87,496.45,481.67,494,480,492Z" transform="translate(-320 -156.16)"/>
    <path id="Tracé_55" data-name="Tracé 55" class="cls-42" d="M483.93,501.05c-2.1-7.75-1.94-15.68-2-23.59v-6.49a3.159,3.159,0,0,0,.08-.92L484,469C481.75,479.66,484.89,490.36,483.93,501.05Z" transform="translate(-320 -156.16)"/>
    <path id="Tracé_56" data-name="Tracé 56" class="cls-42" d="M484,511q0-5-.07-10c2.14,6.43,2.16,13.19,3,19.8.78,6.32.78,12.74,1.14,19.12.08,1.27-.28,3,1.38,3.31,1.45.22,2-1.42,2.71-2.54,1.19-2,1.5-4.45,3.69-5.76-.68,4.84-3.76,8.63-5.63,12.95a1.62,1.62,0,0,1-2,1.05c-1.19-.34-1.15-1.44-1.22-2.44-.68-8.72-1.35-17.44-2.06-26.16C484.66,517.25,484.31,514.13,484,511Z" transform="translate(-320 -156.16)"/>
    <path id="Tracé_57" data-name="Tracé 57" class="cls-43" d="M503.28,516.88c-1.75-1.64-1.38-2.93-.58-4.58C504.43,513.56,504.08,514.92,503.28,516.88Z" transform="translate(-320 -156.16)"/>
    <path id="Tracé_58" data-name="Tracé 58" class="cls-44" d="M462.93,214.1A3.77,3.77,0,0,1,461,212c-2.29-4.44-1.94-5.31,3-5.85,18.8-2,37.58-.94,56.37.37,15.28,1.07,30.31,4.12,45.52,5.64l.25.7-.59.69c-4.19,1.67-8.53,1.3-12.75.5-27.37-5.2-55-6.23-82.74-5.5C465.93,208.62,464.32,211,462.93,214.1Z" transform="translate(-320 -156.16)"/>
    <path id="Tracé_59" data-name="Tracé 59" class="cls-45" d="M601.71,218.2c13.54,3.37,27.31,5.58,41,8a25.63,25.63,0,0,1,7.78,1.09c.91.32,2,.57,1.36,2-3.65,1.89-7.48,1.43-11.19.51q-21.06-5.21-42.44-8.84c-9.11-1.53-18.27-2.86-27.36-4.55-2-.38-4.46-.43-5-3.24l.23-.34Z" transform="translate(-320 -156.16)"/>
    <path id="Tracé_60" data-name="Tracé 60" class="cls-46" d="M565.91,213.16a8.44,8.44,0,0,0,4.51,1.86c12.4,2,24.74,4.55,37.19,6.19,10.21,1.34,20,4.6,30.13,6.2a80.782,80.782,0,0,0,14.52,1.46,9.58,9.58,0,0,1,6.3.14c5.44.55,10.7,1.48,14.2,6.33l-.57,2.36c-.94,5,2.07,8.89,3.74,13.16.72,1.85,2,3.9.31,5.52-1.52,1.42-3.37-.6-4.82-.64-6.61-.22-12.77-3.16-19.4-2.81-1.37-1.3-3.67-2.42-.88-4.52,1.38-.69,2.89-.57,4.37-.68,2.58-.21,5.8.2,6-3.54.19-3.24-.55-6.35-4.57-7.13a8.28,8.28,0,0,1-1.29-.57c-3.65-2.34-7.61-2.27-11.66-1.5a5.38,5.38,0,0,1-2.78-1c-6.62-2.15-13.32-3.52-20.27-2a6.7,6.7,0,0,1-3.89,0c-1.67-.79-3.22-1.94-5.22-1.74a13.9,13.9,0,0,1-3.58-.47c-1.59-.56-3.09-1.36-4.71-1.83-5.74-3.12-12-2.68-18.23-2.77-2.94-.41-3.81,2.11-5.3,3.76h-.07c-1,.29-1.52-.37-2-1.05-3-4.71-7.31-6.21-12.63-5.39a14.9,14.9,0,0,1-2.73-.58c-2.52-.19-5-2.73-7.56-.18-.82,5.26-.82,5.26-7.1,4.14-3.3-1.13-3.75-3.59-3.09-6.58-.14-4.59-3.72-3.29-5.83-2.81-3,.67-1.57,2.93-.64,4.68.46.86,1.11,1.68.58,2.75-1.31,2.94-4.39,6.2,2.34,7.68-4.58,2.78-8.48.73-12,.05-10-1.93-19.95-2.38-30-2.94-5.46-.3-10.8-2.16-16.25,0a1.527,1.527,0,0,1-.94,0c-2-6.61-11.89-3.65-13.4-11.08-.64-3.21-2.5-2.13-4.07-.45-2.2-.12-1.59-1.83-1.76-3.1-.76-6.16-.29-7,6.09-7,15.3-.14,30.74-1.34,45.84.37,12.68,1.44,25.63,1.86,38.14,5.22C557.06,213.76,561.6,213.05,565.91,213.16Z" transform="translate(-320 -156.16)"/>
    <path id="Tracé_61" data-name="Tracé 61" class="cls-9" d="M642.65,224.19a141,141,0,0,1-18.76-4.93L616,218c-4.73,2.66-9.56-.88-14.31.22,2.31,3.74,6.37,2.88,9.74,3.5,10.36,1.91,20.55,4.8,31.12,5.49.57-.17,1.43.81,4.43.81,2.68.76,2.58.12,5.26.87h2.37l3.13.88c5.16,1.35,10.76,1.75,14.32,6.57,1.64,1.55,1.92,4.53,4.9,4.68,1.35-7.56-3-12.24-12-12.34" transform="translate(-320 -156.16)"/>
    <path id="Tracé_62" data-name="Tracé 62" class="cls-47" d="M645.6,400.19a12.452,12.452,0,0,1-2.4-.48c-2.65-1.14-5.13-.81-6.26,1.87-1.25,2.93-.36,5.88,2,8.09,2.21,2,4.42,1.84,6.34-.57,1.32-2.93,2.54-5.86.31-8.91Zm-3.72,7.62c-2.09.24-2-1.89-2.18-3.24s.1-2.73,2-2.63a2.09,2.09,0,0,1,2.13,2.35C643.2,405.43,643.68,407.6,641.88,407.81Z" transform="translate(-320 -156.16)"/>
    <path id="Tracé_63" data-name="Tracé 63" class="cls-48" d="M565.07,222.14c6.5-2.29,10.79-.31,14.89,6.86-.09,2.5-.05,5.26-3.18,5.89A7.77,7.77,0,0,1,568,231c-1-1-1.77-2.26-2.75-3.32C564.59,225.86,563.37,224.05,565.07,222.14Z" transform="translate(-320 -156.16)"/>
    <path id="Tracé_64" data-name="Tracé 64" class="cls-49" d="M580,229c.37-2.87.28-6.2,4.86-4.89a2.62,2.62,0,0,1,.82,1.1c.5,2.13-.6,4.64,1.67,6.56,1-2.51-2.68-4.92,0-7.2,3.31-1,4.61,1.08,5.65,3.61.87,2.89,2.68,5.55,2.11,8.79C588.59,238.75,583.61,236.13,580,229Z" transform="translate(-320 -156.16)"/>
    <path id="Tracé_65" data-name="Tracé 65" class="cls-50" d="M592.23,229c-1.12-2.16-1.71-5-5.26-3.91a1.27,1.27,0,0,1-1.87,0q-.09-.48-.21-1c6.64-.08,13.37-.75,19.38,3.11,2.77,3.73,5,7.63,4,12.56l-.35.35-1.65-1.1a23.071,23.071,0,0,1-5.21-2.72c-3.3-2-4.88-4.62-2.82-8.43-1.83-.56-2.83.75-4.06,1.48a1.66,1.66,0,0,1-1.95-.34Z" transform="translate(-320 -156.16)"/>
    <path id="Tracé_66" data-name="Tracé 66" class="cls-51" d="M546.22,218.89c-.65,2.42-1.69,5,1.83,6.13,1.67,1.08,3.77,2.43,2.14,4.49-1.44,1.82-3.91,2-6.09.53L541.91,229c.25-3.48-1.65-5.68-4-8-1.75-1.75-1-4.28,1.81-4.76C542.25,215.78,545.11,215.49,546.22,218.89Z" transform="translate(-320 -156.16)"/>
    <path id="Tracé_67" data-name="Tracé 67" class="cls-52" d="M553.79,221.08c.11-2.92,2.14-1.94,3.57-1.59,1.89.45,4,.21,5.64,1.58a20.839,20.839,0,0,0,1.64,6.07c-1.77,1.48-2.29,2.57-2.72,5.82-1.25.19-2.53,1.33-3.74-.11C554.83,229.63,554.91,225.13,553.79,221.08Z" transform="translate(-320 -156.16)"/>
    <path id="Tracé_68" data-name="Tracé 68" class="cls-53" d="M553.79,221.08q2.21,5.88,4.39,11.77A14.739,14.739,0,0,0,552,232a2.17,2.17,0,0,1-2-.89c-2-.36-4.59,3.08-5.9-1,1.85-.45,4.21,1.09,5.56-.77s-.84-2.89-1.61-4.25a2.7,2.7,0,0,1,1,0C552.8,226.33,554.32,225,553.79,221.08Z" transform="translate(-320 -156.16)"/>
    <path id="Tracé_69" data-name="Tracé 69" class="cls-54" d="M593.85,229c2.17-5.31,5.15-2.13,8.22-1.35-.81,2.44-4,.65-3.86,2.93s1.68,3.85,3.62,5.06c1.58,1,4.13.74,4.45,3.39l-2.06.73C597.39,237.7,594.27,234.47,593.85,229Z" transform="translate(-320 -156.16)"/>
    <path id="Tracé_70" data-name="Tracé 70" class="cls-55" d="M546.22,218.89a6.842,6.842,0,0,0-1.2-.84c-2.25-.92-5.23-2.35-6.7-.17-1.64,2.42,1.46,3.8,3.13,5.25,1.11,1,2.17,2,3.22,2.92-.17,1.84-4.37-.41-2.75,2.93-1.63-.07-3.65.12-1.9-2.47,1-1.43,0-1.95-1-2.53-.71-.9-1.42-1.8-2.12-2.71-1.22-1.61-1.51-3.82-.46-5.1,1.88-2.28,4.91-1.24,7.36-.93C545.28,215.42,547.48,216.32,546.22,218.89Z" transform="translate(-320 -156.16)"/>
    <path id="Tracé_71" data-name="Tracé 71" class="cls-56" d="M593.85,229c1.34,5.63,5.66,8.38,10.37,10.77-2.48.54-4.44-.56-6.11-2.17-.94-.9-1.76-1.34-2.94-.63l-2.94-8Z" transform="translate(-320 -156.16)"/>
    <path id="Tracé_72" data-name="Tracé 72" class="cls-57" d="M561.92,233c-1.25-3-1.77-5.59,2.78-5.75.75-.16,1.13.54,1.73.74.72.92,1.68,1.71,1.59,3.05C565,228.47,563.46,230.77,561.92,233Z" transform="translate(-320 -156.16)"/>
    <path id="Tracé_73" data-name="Tracé 73" class="cls-46" d="M550,231.06a1.94,1.94,0,0,1,2,.89c.17,1,1.54,2.11-.2,2.85a2.38,2.38,0,0,1-2.73-.46C547.66,232.83,549.83,232.2,550,231.06Z" transform="translate(-320 -156.16)"/>
    <path id="Tracé_74" data-name="Tracé 74" class="cls-58" d="M608.28,239.75l-4-12.56c1.5.27,3.14.24,4.06,1.81,1.23,1.05,2.45,2.23,3.84.18A3.56,3.56,0,0,1,617,231c2.23,3.05,4,6.27,3.64,10.23-1.59,2.12-3.06,2.13-4.39-.26l-1.11-3c-1.7-1.6-2.71-1.26-3,1.08.09,1.19.14,2.47-1.35,2.8S609.07,240.49,608.28,239.75Z" transform="translate(-320 -156.16)"/>
    <path id="Tracé_75" data-name="Tracé 75" class="cls-34" d="M651,249.05c-1.36,1.73,1.31,2.42,1,3.88L643,250c-2.45-2.09-5.14-2.18-8-1-3.65-.68-7.47-.5-11-2.07,1-2.4,3.46-2.15,5.35-2.93a31.21,31.21,0,0,1,7-.36c3.87.72,8.58-1.55,11.33,3.16C648.62,247.82,650.2,247.85,651,249.05Z" transform="translate(-320 -156.16)"/>
    <path id="Tracé_76" data-name="Tracé 76" class="cls-34" d="M616.23,241c1.37.82,2.73,1.71,4.22.22,1.24-.13,2.1.66,3.06,1.23a1.55,1.55,0,0,1,.63,1.75c-.29.37-.65.84-1.08.86-1.46.07-1.88.61-1.07,1.9l-11.38-2.65C613.47,243.26,612.52,239.14,616.23,241Z" transform="translate(-320 -156.16)"/>
    <path id="Tracé_77" data-name="Tracé 77" class="cls-46" d="M635,249.05c-.06-.71-.87-1.76.43-2a13.81,13.81,0,0,1,7.87,1.37c1.06.5,1.56,1.39-.31,1.55C640.32,249.58,637.45,250.94,635,249.05Z" transform="translate(-320 -156.16)"/>
    <path id="Tracé_78" data-name="Tracé 78" class="cls-46" d="M622,246.91c-2.92-3.62,1.28-2.07,2.14-2.95a3.94,3.94,0,0,1,2.58-.1A3.19,3.19,0,0,1,629,245c-1.31,1.53-3.54.71-5,1.94Z" transform="translate(-320 -156.16)"/>
    <path id="Tracé_79" data-name="Tracé 79" class="cls-59" d="M612.09,239c-.38-1.25-2.16-2.84-.49-3.67s3.35.34,3.52,2.59Z" transform="translate(-320 -156.16)"/>
    <path id="Tracé_80" data-name="Tracé 80" class="cls-60" d="M647.13,248.12c-2.27-4.29-6.21-3.44-10-3.25-3.32-2.54-3.63-6.57-4.81-10.11-.74-2.19.6-3.52,3-3.21s4.6.32,6.6,1.66l1.74.93a3.56,3.56,0,0,1,2.89,3,15.77,15.77,0,0,0,3.17,7.93C651.57,247.71,650.26,249,647.13,248.12Z" transform="translate(-320 -156.16)"/>
    <path id="Tracé_81" data-name="Tracé 81" class="cls-58" d="M656.07,235.86a1.1,1.1,0,0,0,.81.29,7.67,7.67,0,0,1,3,1.82c1.76,2.1,2.93,4.49,2.25,7.29-.55,2.27-2.52,3.1-4.58,3.16-2.84.08-5.74.82-7.69-2.83a35,35,0,0,1-3.32-8.76c-.49-2.15,0-3.31,2.43-2.82S654,234.19,656.07,235.86Z" transform="translate(-320 -156.16)"/>
    <path id="Tracé_82" data-name="Tracé 82" class="cls-61" d="M642,233.21c-3,.53-6.68-2.7-8.49-.05-1,1.42,1.56,5.25,2.5,8,.43,1.24.82,2.48,1.22,3.72L629,245l-3.21-.25a6.373,6.373,0,0,1,.08-1c.33-1.71-2.44-3.63-.33-4.9,2.38-1.42,4.27.58,6.61,3a57.4,57.4,0,0,0-2.33-7.07c-1-2.76-3.37-3-5.74-2.26s-2.56,2.71-2.07,4.84c.4,1.75,1.56,3.31,1.31,5.22-1.55.62-2.15-.55-2.86-1.51-1.38-3.32-2.92-6.59-3.47-10.19,6.27-1.92,12.53-.54,18.81,0C638.08,231.19,640.48,230.84,642,233.21Z" transform="translate(-320 -156.16)"/>
    <path id="Tracé_83" data-name="Tracé 83" class="cls-62" d="M656.07,235.86c-2.88-.42-7.06-2.48-8.31-.87-1.67,2.14,1.47,5.47,2.17,8.4s2.2,4.62,5.44,4.58c2.22,0,4.37-.13,5.62-2.19s.39-4.2-.8-6a30.564,30.564,0,0,0-3.31-3.64c5.78-.29,5.56,4.26,6,7.85.49,4.17-2.77,4.75-5.88,5-2,.15-4,0-6,.06-1.31-.24-2.84.45-3.88-.93.87-.55,4.17.69,2-2.06s-5.18-4.43-3.46-8.65c.29-.7-1.28-2.16-2-3.27C648.08,232.79,652.37,232.21,656.07,235.86Z" transform="translate(-320 -156.16)"/>
    <path id="Tracé_84" data-name="Tracé 84" class="cls-63" d="M566.43,228l-1.73-.74c-.72-3.09-4.52-1.21-5.7-3.22,0-3.25,5.07,1.66,4-2.92a1.85,1.85,0,0,1,2.07,1.07C564.8,224.24,565.88,226,566.43,228Z" transform="translate(-320 -156.16)"/>
    <path id="Tracé_85" data-name="Tracé 85" class="cls-64" d="M612.17,229.18c.16,1,1.62,2.23-.06,2.79-2.39.8-3.44-.8-3.78-3Z" transform="translate(-320 -156.16)"/>
    <path id="Tracé_86" data-name="Tracé 86" class="cls-65" d="M570.89,224.22c3,.48,4.36,2.29,4.59,5.09.09,1.14,0,2.87-1.48,2.4-2.51-.78-3.67-3.09-4.41-5.57C569.18,224.76,569.86,224.38,570.89,224.22Z" transform="translate(-320 -156.16)"/>
    <path id="Tracé_87" data-name="Tracé 87" class="cls-66" d="M585.1,225H587c.73,2,1.53,4,2.15,6,.29.94,1.56,2.16-.08,2.93a2.51,2.51,0,0,1-3-1.11C584.19,230.47,584.14,227.8,585.1,225Z" transform="translate(-320 -156.16)"/>
    <path id="Tracé_88" data-name="Tracé 88" class="cls-67" d="M623.31,242.68c-.78-1.47-1.67-2.88-2.3-4.41-1.16-2.84-1.59-6.1,2-7,3.11-.74,7.21-1.58,8.24,3.68a43.32,43.32,0,0,0,2.16,6.09c.36,1,1.4,2.25-.3,2.9a2.07,2.07,0,0,1-2.76-1.51c-.72-2.58-2.41-3.24-4.72-3.05-.59,1.89,3.55,3.5.11,5.38l-1.65-.83Z" transform="translate(-320 -156.16)"/>
    <path id="Tracé_89" data-name="Tracé 89" class="cls-68" d="M639.2,240.5c.3-1.86-2.31-3-.33-4.48a2.24,2.24,0,0,1,2.15.52C642,238.28,640.21,239,639.2,240.5Z" transform="translate(-320 -156.16)"/>
    <path id="Tracé_90" data-name="Tracé 90" class="cls-69" d="M657.27,242c0,1.53-.46,3.2-2,2.82-2.49-.59-2-3.42-2.94-5.24-.51-1,.3-1.63,1.23-1.47a4.15,4.15,0,0,1,3.71,3.89Z" transform="translate(-320 -156.16)"/>
  </g>
</svg>
