<svg id="Layer_1" data-name="Layer 1" xmlns="http://www.w3.org/2000/svg" viewBox="0 0 385.22 442.84"><defs><style>.cls-1{fill:#72193a;}.cls-2{fill:#fefefe;}.cls-3{fill:#fdfefd;}.cls-4{fill:#f3e0eb;}.cls-5{fill:#731839;}.cls-6{fill:#711939;}.cls-7{fill:#fcfbf7;}.cls-8{fill:#72193b;}.cls-9{fill:#6b1e3a;}.cls-10{fill:#65233b;}.cls-11{fill:#65273e;}.cls-12{fill:#711f2a;}.cls-13{fill:#643446;}.cls-14{fill:#5f3042;}.cls-15{fill:#622a3f;}.cls-16{fill:#642d41;}.cls-17{fill:#6b361a;}.cls-18{fill:#673546;}.cls-19{fill:#64273d;}.cls-20{fill:#613b48;}.cls-21{fill:#6f4353;}.cls-22{fill:#673547;}.cls-23{fill:#865869;}.cls-24{fill:#582437;}.cls-25{fill:#5f3143;}.cls-26{fill:#6a374b;}.cls-27{fill:#735a64;}.cls-28{fill:#795a67;}.cls-29{fill:#5f2d3e;}.cls-30{fill:#72676b;}.cls-31{fill:#fdfdfe;}.cls-32{fill:#fbf8f7;}.cls-33{fill:#69272b;}.cls-34{fill:#fae6f3;}.cls-35{fill:#f9e8ac;}.cls-36{fill:#e3b7cc;}.cls-37{fill:#c37a95;}.cls-38{fill:#6e1c3a;}.cls-39{fill:#fcfcfe;}.cls-40{fill:#f7da1b;}.cls-41{fill:#fbf5fa;}.cls-42{fill:#68213b;}.cls-43{fill:#70250f;}.cls-44{fill:#f4c843;}.cls-45{fill:#6e2b0a;}.cls-46{fill:#f8df13;}.cls-47{fill:#fbf4c4;}.cls-48{fill:#f9f4b9;}.cls-49{fill:#ede355;}.cls-50{fill:#f7cc42;}.cls-51{fill:#f7cd3d;}.cls-52{fill:#f8e010;}.cls-53{fill:#643344;}.cls-54{fill:#6d2d0e;}.cls-55{fill:#6d2d0c;}.cls-56{fill:#eec143;}.cls-57{fill:#73310b;}.cls-58{fill:#763411;}.cls-59{fill:#efc346;}.cls-60{fill:#713405;}.cls-61{fill:#f4cc3b;}.cls-62{fill:#edbc53;}.cls-63{fill:#f4cb3b;}.cls-64{fill:#702f0c;}.cls-65{fill:#f1bd54;}.cls-66{fill:#753113;}.cls-67{fill:#f2c151;}.cls-68{fill:#f5c64a;}.cls-69{fill:#eaae67;}.cls-70{fill:#ecbe4b;}.cls-71{fill:#f0c149;}.cls-72{fill:#f0bc5a;}.cls-73{fill:#753013;}.cls-74{fill:#e5a658;}.cls-75{fill:#f0bd50;}</style></defs><title>Camion</title><path class="cls-1" d="M370.34,426.88c18.89.24,37.38,3.78,56,6.62,23.17,3.55,46.11,8.69,69.44,10.93,21.38,2.05,42.93,1.68,64.41,1.69,33.5,0,67-.16,100.48,0,4,0,5.47-1.43,6.39-5,4.8-18.33,5.81-37.11,7-55.89.11-1.86-.15-3.06-2.51-3.29-44.05-4.35-88-10.28-132.35-10.73a76.4,76.4,0,0,0-10.43.93c-3.56.47-5.27,2.43-4.58,6.21a226.82,226.82,0,0,0,11.27,40.73c1.88,4.91,5.85,8,11.36,9.32-2.61,2-5.66,2.17-8.25,3.38-3.09,1.44-4.73.23-6-2.73-4.69-10.86-7.79-22.24-11-33.56-2.45-8.58-6.39-16.76-6.69-26-.16-4.79.87-6.63,6.13-6.65,28.84-.08,57.6,1.76,86.35,3.65,20.27,1.34,40.51,3,60.77,4.47,5.81.44,11.6,1.07,17.42,1.38,3,.16,4,1.24,3.78,4.29-.59,7.29-.9,14.6-1.33,21.91,0,7.81-2,15.38-3.15,23-1.59,11-5.11,21.63-8.37,32.26-1.2,3.9-4.32,4.7-7.91,4.64-18.64-.26-37.24,1.35-55.9,1.16-13.79-.15-27.58,1.24-41.4.88-22.44-.59-44.86-1.78-67.29-2.76-8.79-.38-17.58-.78-26.36-1.33-15.46-1-30.54-4.53-45.69-7.55-1.14-.22-2.27-.48-3.43-.6-15.1-3.4-30.28-6.32-45.66-8.24-12.07-1.51-24.24-1.15-36.31-2.41-2.41-.25-3.82.77-3.9,3.33,0,1-.05,2-.06,3-.16,11.19.85,12.36,11.14,10.87A176.42,176.42,0,0,1,385,453.53c26.82.94,43.6,16.72,46.33,41.72.79,7.27,1.31,14.57,2.16,21.84a94.08,94.08,0,0,0,2,13.79c3.45,16.65,12.72,24.86,29.69,25.48,10.94.4,21.95.92,32.86-.68,4.49-.65,8.93.19,13.41.06,16.94-.48,33.86-1.72,50.82-1.33a2.63,2.63,0,0,1,1.79.72q28.13-.61,56.24-1.25c13.61-.32,27.21-.71,40.82-1,4.61-.11,8.92-.85,12-4.73.93-.18,1.57-.11.94,1.08-.85,2.07-2.89,3-4.24,4.65-2.86,4.07-7.36,4.21-11.61,4.5-5.64.39-11.31.09-17,.14a15,15,0,0,0-5.42.58c-9-.09-17.95,1.52-27,1.32a13.52,13.52,0,0,0-4.85.65c-23.89,1.58-47.74,3.56-71.6,5.57-21.71,1.83-43.44,3.46-65.13,5.57-3.71.36-7.3-.45-10.95-.51-1.42-.05-2.5-1.11-3.86-1.31-5.74-1.31-11.26-3.19-15.92-6.9-2.55-2-4.06-1.43-5.37,1.29a71.58,71.58,0,0,1-6.53,10.64c-1.41,1.94-2.73,5.5-5.31,4.28-2.74-1.29-.67-4.45.12-6.7,1.65-4.73,3.06-9.51,4.34-14.35s1.92-9.41-.59-14.06c-1.11-2-1.08-4.5-1.31-5.74a50.32,50.32,0,0,1-10.13,25.07c-.79,1.06-2,2.13-3.41,1.15-1.59-1.12-.78-2.77-.18-4.08,3.53-7.69,4.86-15.89,5.87-24.18,1.31-10.79-.37-21.24-3.58-31.49-1.13-3.62-3.17-7-7.48-7.05s-6.33,3.32-7.84,6.74a63.46,63.46,0,0,0-4.67,16.29c-.24,1.61-.16,3.34-1.7,4.85-2.14-.9-2.69-2.85-2.66-4.75.07-6,.07-12,2.16-17.77,2.24-6.2,5.34-11.82,12.53-12.9s12,2.93,16,8.14c-1.07-3.62-1.6-7.54-3.09-11.21C410.06,478.9,404,473,394.54,471c-5.39-1.15-10.88-1.43-16.31-2.28-7.06-1.59-14.13-.54-21.18,0-4.12.3-8.22.84-12.35.81-2.33.64-4.64,1.39-6.22,1.07-1.55.27-.64,1.19-.93.58,2.37-1.08,5.07-.67,7.47-1.62,9.27-.14,18.44-1.93,27.74-1.51,2.13.09,4.46-.28,5.25,2.56-.18,8.33-2.44,16.42-2.88,24.76-.28,5.31-.5,10.63-.69,15.95-.07,13.25-.18,26.49.94,39.71.23,2.81,1.09,5.51,1.07,8.36,0,3.76-1.32,6.11-5.47,6-11.62-1.6-23.27-3.05-35-4.23-4.11-.41-6.42.45-8.29,4.19-1.56,3.11-3.29,6.65-7.73,6.72v-6a13.36,13.36,0,0,0,1.26-1.45c3.3-4.25,3.3-4.25-1.26-6.55v-9c1.85-1.61,4-1.25,6.17-1,9.77.93,19.5,2.23,29.27,3.22,5,.51,6.06-.08,6-4.66-.35-19.13,1.5-38.22,1.07-57.35-.14-6.37-.12-6.25-6.5-5.89-9.46.55-18.91,1.23-28.35,2.12-2.61.24-5.36.51-7.64-1.4V473c4.88.51,5.85-1.81,5.93-6.43.93-56.07,3.5-112.07,8.22-167.95,1.83-21.69,4.26-43.32,7.9-64.8.22-1.3.67-2.56,1-3.84,2.34-6.59,2.81-13.64,4.93-20.29.24-.77.34-1.62.51-2.44.26-1.19.71-2.41,2.15-2.24,1.6.18,2.17,1.43,1.95,2.94-.42,2.8.35,5.67-.51,8.44-1.43,14.2-2.83,28.41-4.3,42.61q-5,48.38-7,97c-1,23.28-1,46.55-.67,69.83,1.91,1.43,4.1.62,6.15.69C354.29,426.76,362.33,426,370.34,426.88Z" transform="translate(-320 -156.16)"/><path class="cls-2" d="M320,484c13.08-.87,26.18-1.56,39.24-2.72,3.95-.35,5.1.35,5,4.5-.63,21.24-1,42.49-1.32,63.74,0,3.33-1.43,3.81-4.28,3.5-12.87-1.42-25.75-2.69-38.62-4Z" transform="translate(-320 -156.16)"/><path class="cls-3" d="M393.31,589c-7.28,2.46-15,2.5-22.46,3.52C353.92,594.8,337,596.85,320,599V572a22.16,22.16,0,0,0,8.27-10.24c.63-1.47,1-3,3.38-2.67,12.74,1.93,25.7,2.29,38.36,4.92,3.64,2.47,5.1-2,7.8-2.48a3.73,3.73,0,0,1,2.15,2.54,65.73,65.73,0,0,0,12.42,22.2A3.16,3.16,0,0,1,393.31,589Z" transform="translate(-320 -156.16)"/><path class="cls-4" d="M320,558c2.05.24,5.19-.62,5.77,1.4s-2,3.93-3.62,5.52A8.18,8.18,0,0,1,320,566Z" transform="translate(-320 -156.16)"/><path class="cls-5" d="M683,259a16.1,16.1,0,0,0,5,7.7c10,8.9,13.31,20.72,14.63,33.43,1.13,10.76,2.57,21.48,2.55,32.35,0,6-2.34,10.47-7.59,13-3.59,1.71-4.2,4-3.41,7.43.55,2.42.8,4.9,1.18,7.33-23.19-8.92-47.67-10.24-71.62-14.06-27.61-4.39-55.43-7.31-83.31-9.54-15.11-1.22-30.25-1.73-45.4-2.08-.64,0-1.31-.18-1.86.94,8.39,4.19,17.54,5.65,26.55,7.42,13.37,2.63,26.84,4.75,40.4,6.27A16.7,16.7,0,0,1,563,350c5.86,2.54,12.25,2.28,18.36,3.52a8.11,8.11,0,0,0,1.48,0c1.67,0,3.07.59,3.18,2.4.13,2.27-1.84,2.09-3.18,2-5.09-.35-10.21-.21-15.28-.81-16.31-.5-32.43-3.08-48.64-4.69-6.79-.67-13.53-1.79-20.32-2.37-9.67-.82-17.65-4.68-23.42-12.52-1.89-2.59-4-3.35-7.11-3.48-16.85-.74-33.4-3.15-49.38-8.94-4.34-1.57-6.17-4-6.7-8.46-2.49-20.62-2.89-41.14,1.93-61.52.2-.84.27-1.65-.77-2-4.53.52-5.12,3-5.49,7.41-.64,7.54-.36,15.09-1,22.62-.89,10.83-2,21.67-2.17,32.56,0,2.54-.07,5-1.74,7.07-1.41,1.73-3,2.82-4.75.27-.47-19.64.58-39.25.88-58.88a9.5,9.5,0,0,0,0-2c-2.17-10.17,2.63-15.16,12-18.41,13.74-4.78,26.74-11.83,41.6-13,2.63-.21,5.29,0,8.89,0A55,55,0,0,1,451,216.84a49.58,49.58,0,0,1-4.87-14.07c-.64-3.46.15-5.65,4.28-6.18a230.57,230.57,0,0,1,25.86-1.72c22.63-.34,45.26-.63,67.41,5.18,1.12.29,2.2.7,3.3,1.06,1.15,1.94,3,2.48,5.08,2.5,6.37,0,12.1,3,18.24,4,1.61.28,3.7.75,3.53,2.75s-2.42,1.75-4,1.91a37.33,37.33,0,0,1-4,.08c-7.17-1.12-14.33-2.3-21.5-3.42a258.5,258.5,0,0,0-39.06-3.54c-4.51,0-8.93-.77-13.4-1-9.14-.41-18.21,1.44-27.37,1.05-1.94-.08-4.34.33-5.2,2.32s0,4.14,1.56,5.92c4.3,5,8.05,10.64,14.62,13.14a62.19,62.19,0,0,0,18.66,2.75c28.74.24,56.86,5.73,85.11,10.18,8.39,1.32,16.73,2.93,25.15,4.09,4.27,1.44,8.91,1.19,13.13,2.87,2.39,1.76,5.28,1.7,8,2.26,11.49,2.36,22.9,5.19,34.48,6.93,5.48.82,10.89,2.62,16.54,2.15a12.69,12.69,0,0,1,3.3-.35A4.86,4.86,0,0,1,683,259Z" transform="translate(-320 -156.16)"/><path class="cls-6" d="M356.15,397c-2.54-38.71-4.69-77.47-1-116.18,2-21,7.24-41.57,10-62.47,1.42-10.83,6.84-16.79,15.61-22.06,14.67-8.83,28.88-18.46,44.32-25.91a138.54,138.54,0,0,1,84.51-12.28c32.59,5.39,65.12,11.16,97.05,19.85,13.5,3.68,26.66,8.18,38.52,15.83,1.38.89,3,1.42,3.92,3,2.3,4.28,2.17,4.9-1.18,5.3-11.13-3.13-22.2-6.46-33.39-9.34-30.47-7.81-61.26-14-92.69-16.15-19-1.32-38-.53-56.94-.36a22.11,22.11,0,0,0-8.23,1.81c-20.66,8.74-41.25,17.59-60.36,29.56a29,29,0,0,0-13.42,18.12c-8.82,32.53-13.25,65.77-16.91,99.16-2.82,25.65-4.46,51.39-6.12,77.14-.51,1-1,2.27-2.3,2-1.59-.28-.88-1.78-1-2.78C356.35,399.85,356.82,398.38,356.15,397Z" transform="translate(-320 -156.16)"/><path class="cls-7" d="M428,446.94c11.41,2.08,22.81,4.27,34.26,6.21,19.58,3.32,39.43,3,59.18,4,24.09,1.17,48.17,2.53,72.32,1.77,25.76-.81,51.53-1.33,77.3-1.78,3.14-.06,3.35-1.93,4-3.93,5.36-17.29,9.79-34.78,12.17-52.76a8.12,8.12,0,0,1,.68-1.83c-.3,5.2,1.45,10.59-1.65,15.56a4.62,4.62,0,0,0-.16,3.42c1.57,4.74,2.53,9.28-2,13-.34.28-.62.94.05,1.22,5.8,2.37,1.19,4.59-.26,6.46-3.5,4.52-5,9.4-3.22,14.91s-1.85,10.27-2.15,15.48c0,.54-1.15,1.32-1.87,1.46-3.89.79-4.91,3.18-4.65,6.89.27,3.87-1.76,4.68-5,2.95-.74-.39-1.5-.73-2.23-1.12-1.11-.58-2.25-1-3,.36s.42,1.69,1.24,2.22c1.06.69,2.87,1.34,1.56,2.89a2.31,2.31,0,0,1-3.84-.55c-2-3.6-4.66-2.89-7.7-1.93s-6.19,1.31-8.8-1.27c-1-.93-1.84-1.42-2.92-.21-4.43,5-8.34,2.22-11.93-1-1.5-1.37-3.23-1.87-4.43-.94-2.68,2.08-5.23,1.18-8,.68-10.21-1.85-20.5-1.32-30.74-.56C572,479.54,558,478,544,478c0-.31,0-.61,0-.92,1.53-1.73,3.63-1.46,5.58-1.46,26.63,0,53.26-.15,79.88.07,7,.06,13.84,1.49,20.8,1.94,8.07.51,13.94-3.23,18.79-9.12-.82-2.8-3.21-1.86-5-1.9-10.46-.24-20.91.67-31.32,1.33-9.77.61-19.56.58-29.34,1.43-24.34,2.11-48.79,1-73.19,1.17a21.23,21.23,0,0,1-5.45-.46,15.06,15.06,0,0,0-7.59-1.76c-7.33.46-14.46-.81-21.57-2.46s-10-.71-12.33,3.57a6.66,6.66,0,0,1-.52,1.52c-.69,1.09-1.22,2.4-2.89,2.17-1.89-3.34-2-6.94.31-9.82a8.81,8.81,0,0,1,10-2.86c-3.22-.4-6.72-2.81-10.39.2-.82.67-2.25-.1-3.35-.48-3.31-1.14-6.46-2.1-10.17-.93-3.26,1-5.67-2.23-8.52-3.38-3.56-1.43-6.55-2.29-9.65.57a2.44,2.44,0,0,1-3.22.45c-3.28-2.78-7.15-2.79-11.13-3.32C430.75,453.14,429,450,428,446.94Z" transform="translate(-320 -156.16)"/><path class="cls-7" d="M564,555.13c-16.93.62-33.86,1.29-50.79,1.83-14.62.47-29.24.78-43.86,1.16-16,.42-27.87-5.86-32.56-17.31A68.67,68.67,0,0,1,432.14,517c4.56.74,7,3.45,7.16,8a71,71,0,0,0,1.38,9.85c.58,3.24,1.48,5.77,5.28,7,3.41,1.06,4.62,5.32,8.21,6.91a20,20,0,0,0,7.38,2.2,46.31,46.31,0,0,1,12.26,1.88c4.08,1.34,6.92-.87,6.05-4.94-1.68-7.78-.31-15.54-.64-23.25-.38-9.11.3-18.2-.35-27.27-.15-2-.5-4,1.24-5.59,3.16,1.17,3,4,3.17,6.58.21,4.13,1,8.17,1.62,12.24,2.71,11.43,1.76,23.28,4,35.75,3-4.15,5.05-7.88,5.86-12.24,1.42-7.68,2.39-15.34.9-23.15-1.59-8.33-.83-16.8-1.05-25.21a7.88,7.88,0,0,1,1.21-5.21,11.38,11.38,0,0,1,6.81-2.75,330.58,330.58,0,0,1,37.24-1.17c1.5.05,3,.13,4.13,1.33l0,0c-5.48,1.45-10.88,3.31-16.73,1.67-3.48-1-7.82,2.21-8.25,5.8s-.94,6.74-3.3,9.62c-1.54,1.88-.83,4.54-.59,6.78s.8,4.44,0,6.77c-.34,1-.76,3,1.41,2.94,2.65,0,2.4,1.78,2.4,3.39,0,2.19-.24,4.92-2.6,5.27-2.71.39-2.25,1-1.11,2.6,2.79,3.89,1.25,5.34-3,5.15-1.93-2.07-.78-4.48-.48-6.64,1.61-11.27.5-22.58.78-33.87a6.92,6.92,0,0,0-.21-2c-.9-3.53-3.56-4.19-6.59-3.71s-3.23,2.93-2.7,5.4c1,4.55,1.69,9.14,2.38,13.75,2.07,13.9-.43,27.49-2.54,41.11a10.73,10.73,0,0,0-.29,3.72c3.29-3.84,4.85-7.8,6.42-11.77.62-1.56.45-3.83,3-4,.66,4.9-1.39,9.74-.13,14.74.52,2.09-.62,4.28-3.56,4.32a3.41,3.41,0,0,0-1.9.43c-1.28,1-3.28,1.86-2.78,3.68.39,1.41,2.49,1.71,3.83,1.68,2.62-.06,5.65,0,7.73-1.22,3.37-2,8.2,1.08,10.61-3.35,3.2,2,7,.31,10.2,1.56a6,6,0,0,0,4.94.08c4.65-1.61,9.75-.54,14.26.34C557.92,552.75,562.21,551.07,564,555.13Z" transform="translate(-320 -156.16)"/><path class="cls-8" d="M512,530c-2.82,6.92-4.5,14.52-11.88,20,1.2-7.39,2.39-13.77,3.26-20.19,1.93-14.43,1.91-28.82-1.92-43-.94-3.49-.69-5.78,3.37-6.55,3.39-.64,8.85.35,9.14,4.1.22,2.81.41,5.63.46,8.46.2,11.8,0,23.58-2.16,35.23Z" transform="translate(-320 -156.16)"/><path class="cls-9" d="M567.56,357.11c5,0,9.91,0,14.86-.16,1,0,2.69.83,2.72-1s-1.6-.83-2.59-1.07c-6.52-1.62-13.93.26-19.55-4.92,13,1.41,26,2.88,39.08,4.2,23.28,2.37,46.58,4.64,69.87,6.95a1,1,0,0,1,0,1.76c-22.81.72-45.55-.8-68.28-2.33-10.45-.71-20.89-1.67-31.33-2.55C570.73,357.86,569,358.32,567.56,357.11Z" transform="translate(-320 -156.16)"/><path class="cls-10" d="M398,323a5.29,5.29,0,0,0,5.82-6.49c-1.84-7.6,2.06-14.66,1.27-22.08-.7-6.66,2.3-13.14.94-19.9-1.14-5.7,1.59-11.28.38-17.25-.79-3.89,3.21-4.72,6.72-4.21-3.43,1.52-4.17,4.22-4.38,7.85-1.28,22.41-2.81,44.81-4.36,67.2-.5,7.21-.33,7.68,6.93,8.77,12.68,1.91,25.47,2.54,38.27,3.09,1.7.07,3.75-.8,5.13,1.73a143,143,0,0,1-43.91-.64,1.42,1.42,0,0,0-1-.94c-7.89-.92-8-1-8.65-8.3.3,1.08-.25,2.5-.07,3.93s.13,3-1.08,4.09c-1.78.28-3.09-.31-2.8-2.27C397.93,332.76,396.7,327.82,398,323Z" transform="translate(-320 -156.16)"/><path class="cls-11" d="M352.1,216.39c0-2.81-.07-5.61-.13-8.41,0-1-.3-2.22-1.44-2.25s-1.41,1.16-1.5,2.19c-.65,6.87-3.87,13.22-4.08,20.19,0,1.19-.77,1.73-1.88,1.87,1.33-12.73,5.67-24.73,8.73-37,1.35-5.47,3.77-7.33,9.12-6.88,3.94.33,7.94-.1,11.91-.19,2.42-.13,5-1.54,7.08.95-6.35,1-12.67,2.55-19.06,2.95-4.49.27-5.36,2.45-5.81,6.1C354.21,202.72,353.1,209.54,352.1,216.39Z" transform="translate(-320 -156.16)"/><path class="cls-12" d="M616,218c-11.08-3.89-22.63-6.06-33.95-9A261.28,261.28,0,0,0,554,202.71h0l-7-1.6c.57,3.43,3,3.86,5.91,3.93,7.13.16,13.35,3.93,20.4,4.49l-.15,1.46H566a1.7,1.7,0,0,0-.36,1.6,3,3,0,0,0,1.15,1.25c11.6,2.27,23.23,4.35,35,5.53a60.88,60.88,0,0,1,7.39.63c2.43.2,5.47,1.21,7-1.91Z" transform="translate(-320 -156.16)"/><path class="cls-13" d="M356.15,397c1.28,1.18.88,2.75.86,4.18,0,3.91,1.69,1.24,2.83.8-.27,6.95-.4,13.9-.89,20.84-.21,2.93.7,3.75,3.51,3.64,2.61-.1,5.3-.52,7.88.4l-27.25.14c-1.15,0-2.36.09-3-1.23,5,.11,9.94.06,14.88.39,2.92.2,3.15-.92,2.93-3.43C357.19,414.19,356.72,405.6,356.15,397Z" transform="translate(-320 -156.16)"/><path class="cls-14" d="M564.27,397.11c1,.21,2.14-.33,2.77,1.31,1.1,2.86,1.34,2.83,3.12.15a1.75,1.75,0,0,1,2-1c1.09.21,1,1.14,1.05,1.94a48.05,48.05,0,0,1-.05,5c-.11,1.5,1,3.87-1.18,4.2-2.68.41-1.56-2.22-1.89-3.6-.21-.87-.43-1.64-1.49-1.55-1.7.13-1.51,1.48-1.52,2.6,0,1.51.13,3.1-1.86,3.48-1.22.24-1.12-.88-1.39-1.59C562.13,404.3,561.66,400.64,564.27,397.11Z" transform="translate(-320 -156.16)"/><path class="cls-15" d="M647.9,202.06c3.82-1,0-3.71,1.18-5.3,8.67,5,11.73,13.2,12.87,22.51C658.16,212.77,655.57,205.36,647.9,202.06Z" transform="translate(-320 -156.16)"/><path class="cls-16" d="M589,399c.85-1,2-1.5,3.1-.86,1.6,1-.37,1.86-.35,2.88,0,.79-.53,1.56-.64,2.37-.21,1.39-.07,2.93,1.65,3.05s1-1.62,1.38-2.58c.69-1.91-1.55-5.67,1.68-5.54,2.8.12,1.16,3.83,1.26,5.86.29,5.91-1.08,6.47-8.18,3.86C585.56,405,586.23,402,589,399Z" transform="translate(-320 -156.16)"/><path class="cls-17" d="M672.76,235.34l4.22,5.71c2.43,5.83,5.69,11.39,6,17.93l-3.39-.24c-2.4-1.59-1.94-4.4-2.7-6.65-1.62-4.83-3.84-9.42-5.55-14.21A2.25,2.25,0,0,1,672.76,235.34Z" transform="translate(-320 -156.16)"/><path class="cls-18" d="M610.66,405.49c1.25,1.91,2.37,1.36,3.26,1.62,1.66.49,1.77,1.68.53,2.42-1.63,1-3.6.27-5.35,0s-1.28-2-1.27-3.27-.13-2.68,0-4-.82-3.41,1.11-3.84c1.69-.37,3.6.19,5.41.4.22,0,.39.48.59.74,0,1.48-3.24.76-4,1.48-.89.91.4,2,1,2C614,403,614.43,406,610.66,405.49Z" transform="translate(-320 -156.16)"/><path class="cls-19" d="M659.44,403.19c.73,1.66,3.54-.15,3.32,2.31-.19,2.12-2.61.81-3.56,1.95.5,2.66,3.53.27,4.4,2.4-1.79,2.63-4.59,1.34-6.67.93s-1.18-3-.82-4.29c.64-2.31-2.84-7,3.25-6.49,1.27.11,3.48-1,3.64,1.24S660.47,402,659.44,403.19Z" transform="translate(-320 -156.16)"/><path class="cls-5" d="M400,339.87V326.36c3,2,2.15,4.78,2.61,6.91.8,3.65.57,7.73,6.38,5.84.9-.29,3.5-.77,1.85,2A34.2,34.2,0,0,1,400,339.87Z" transform="translate(-320 -156.16)"/><path class="cls-20" d="M629.18,400.08c1.35-1.23,3-1.2,4.6-.89a2.18,2.18,0,0,1,1.39,1.12c.38,1-.31,1.34-1.23,1.58-4.5,1.19-2.6,3.15-.72,5.34.68.79,3.28-.05,2.1,2.25-.88,1.72-2.28.53-3.44.3a6.69,6.69,0,0,1-1.73-.87C626.64,405.76,626.41,403.69,629.18,400.08Z" transform="translate(-320 -156.16)"/><path class="cls-21" d="M648,400c2.5-1.28,3.23-.23,3.25,2.25s-1.25,5.62,3.06,6.56c1.36.3.5,2.11-.94,2.12-1.87,0-3.94.75-5.56-.91C646.54,406.67,647.41,403.34,648,400Z" transform="translate(-320 -156.16)"/><path class="cls-22" d="M599.09,403.3c0-.83-.05-1.65,0-2.47.09-1.2-.5-2.89,1.69-2.74,1.75.11,1.25,1.52,1.43,2.59.43,2.49-1.7,6.18,3.36,6.6,1,.09.09,1.58-.85,2C601,410.68,599.1,408.68,599.09,403.3Z" transform="translate(-320 -156.16)"/><path class="cls-23" d="M587,399.13l0,0a4.1,4.1,0,0,0-6.25-.09c-2,2-1.58,4.86,0,7,1.45,1.92,3.23,4.3,6.19,1.86a4.81,4.81,0,0,0-.21-1C581.64,402.56,581.63,402.26,587,399.13Z" transform="translate(-320 -156.16)"/><path class="cls-24" d="M578.4,403.36c-.87,2,1,5.13-1.65,5.2-2.87.07-1.53-3.15-1.48-4.78.07-2-1.47-5.75,1.4-5.74C579.84,398.05,577,401.88,578.4,403.36Z" transform="translate(-320 -156.16)"/><path class="cls-25" d="M558.17,404.81c.54-1.78,3.68.23,3.55-2.16-.1-1.77-2.83-.57-3.31-2.22.6-1.1,2.4-.27,3.3-.87a5.42,5.42,0,0,1,.5-1.61c-2.22-1.74-4.82-.57-7.21-.94a10.42,10.42,0,0,0,0,11c2.55-.26,5.14,1.83,7.65-.14C562.93,404.23,558.68,407.41,558.17,404.81Z" transform="translate(-320 -156.16)"/><path class="cls-26" d="M554,397c-4.87-.91-2.41,4.21-4.69,5.46-.31-1-.74-2.06-1-3.18-.28-1.35-.41-2.83-2.33-2.32s-.76,1.81-.53,2.79c.43,1.94,1,3.85,1.43,5.79.76,3.73,2.68,3,4.91,1.37L554,397Z" transform="translate(-320 -156.16)"/><path class="cls-27" d="M379.91,186.81c-2.19-1.58-4.79-.13-7.08-.95,5-1.22,10.07-.83,15.19-.21Z" transform="translate(-320 -156.16)"/><path class="cls-28" d="M672,362.88v-1.76c3.31-.43,6.45.54,9.63,1.76Z" transform="translate(-320 -156.16)"/><path class="cls-29" d="M627,400.43c0-.15.06-.31.11-.47-.39-1-1.33-.94-2.12-1.18l-5,.15c0,1.47-.13,2.94-.12,4.41.07,7.21-1.79,6.82,7.13,6.64h0c0-.43,0-.87,0-1.3-.48-1.58-3.48.09-3.86-1.76-.14-2.16,3.9-.11,3.16-2.83-.42-1.55-2.48-.5-3.29-1.7C623.61,400.47,626.38,402.22,627,400.43Z" transform="translate(-320 -156.16)"/><path class="cls-30" d="M674,549.22l-.94-1.08c.78-1.88,1.56-3.76,2.53-6.08C676.87,545.28,675.6,547.29,674,549.22Z" transform="translate(-320 -156.16)"/><path class="cls-2" d="M480,492c1.64,10-1.24,20.07.8,30.13.69,3.41-.65,7.2-.79,10.83-.2,5.15-.36,10.33,1.55,15.27,1,2.47,0,4.22-2.07,5.5-1.87,1.16-3.51,3-6,.67-2.8-2.59-7-2-10-1.76-4.92.34-8.35-2-12.28-3.7a5,5,0,0,1-3-3.06c-.65-2-1.34-3.63-4.16-3.05-2.11.43-3.39-1.24-3.81-3.16-.81-3.72-2.23-7.54-1.93-11.2.46-5.48-2-8.7-6.06-11.41-1.05-8.91-1.66-17.89-3.23-26.71-3.59-20.17-17.15-33.24-41.56-35.28-12.61-1.06-25.27.27-37.86,1.62-7.56.81-7.59.89-8.14-6.43-.27-3.65-.3-7.32-.53-11-.13-2.08,0-3.34,2.83-3.23,28.45,1.11,56.7,3.63,84.35,10.92.67,1.34,2.62,1.05,3.17,2.87.85,2.82,2.95,3.72,5.9,2.7,4.07-1.43,6.31,3.68,8.95,3.4,2.82-.29,5.64-4.53,9-2.66,2.89,1.63,6.67,1.49,8.82,4.39.73,1,1.54,1.44,2.47.66,3.76-3.22,7.08-.08,10.55.66,1.1.23,2.55,1.58,3.21.77,5.44-6.7,9.43,2.88,14.43,1-3.84.95-7.73-.54-11.53,1.65-4.88,2.81-2.21,7.06-2.91,10.66A27.92,27.92,0,0,1,480,492Z" transform="translate(-320 -156.16)"/><path class="cls-31" d="M379.19,467.8a72.46,72.46,0,0,1,15.79,2c14.18,3.49,23.66,16.77,22.61,32.41-2.45-3.63-4.92-6.66-8.45-8.65-5.66-3.19-11.13-2.63-15.24,2.35-7.11,8.62-6.81,18.76-5.61,29a88.27,88.27,0,0,1,4.78-18.67,24.54,24.54,0,0,1,3.11-5.63c4.6-6,10-5.64,13.77.88,3.21,5.59,4.15,11.85,5,18.12,2.22,15.71-.71,30.64-6.92,45.19,5.82-2.86,11.59-16,13.22-29.71,6.38,14.2,6.15,21.64-1,39.52-.63,1.58-2.16,3.07-1,5.57a83.81,83.81,0,0,0,12-18.41c1.35-2.86,2.31-2.41,4.14-.84a34.74,34.74,0,0,0,17.3,8.23c1.83,1.5.61,3.08-.08,4.44-3.55,7.08-8.68,12.18-17.13,12.56-4.15.19-8.25.81-12.37,1.21-5.32,0-10.64-.07-16,0-7.14.11-12.42-2.94-16.18-9a56.36,56.36,0,0,1-6.45-16.14,127.13,127.13,0,0,1,1.41-69.86,32.5,32.5,0,0,1,2.43-6,44.53,44.53,0,0,1,4.1-6.33c-6.88,6.48-10.47,14.39-12.8,23-.77,2.86-1.16,5.92-3.41,8.18a2.48,2.48,0,0,1-3.09-.27,160,160,0,0,1,4.06-40C378.08,470.08,376.36,467.54,379.19,467.8Z" transform="translate(-320 -156.16)"/><path class="cls-32" d="M584,564.93l-2.89.21c-16.29,2-32.49,4.81-48.8,6.49-18.31,1.88-36.38,5.48-54.74,7a80.93,80.93,0,0,0-13.66,2.25l-1.88.27c-3.69,1.09-7.4,1.67-11.2.65-.5-4.29,1.92-7.4,4.29-10.54a3.34,3.34,0,0,1,2.61-1.13c18.87,1.24,37.47-2.28,56.19-3.47,22.91-1.47,45.77-3.7,68.66-5.51,7.13-.56,14.28-.84,21.42-1.25,2-.39,4.06-.81,6.19.35-1,1.85-2.65,1.68-3.95,1.7-6.72.11-13.13,3-19.94,2.22A4,4,0,0,0,584,564.93Z" transform="translate(-320 -156.16)"/><path class="cls-33" d="M455.11,571.21c-.22,3.82-2.64,6.72-4.15,10-.45,1.06-.42,2.47-2,2.73-3.9,4-8.53,5.41-14.23,5.37-11.9-.1-23.82.56-35.73.88-1.75,0-3.71.69-5-1.27,1.42-3.51,4.58-2.06,6.84-2,6.12.19,12.23-1.09,18.35,0a4.29,4.29,0,0,0,3.76-.88c4.12-.45,8.24-.86,12.35-1.36,9.19-1.12,14.86-6.25,17.33-15.59C454.22,569,455,569.76,455.11,571.21Z" transform="translate(-320 -156.16)"/><path class="cls-34" d="M373.16,511l2.95,0c1.62,1.81,1.45,4,1.18,6.14-1.62,12.8-.76,25.5,1.13,38.19.34,2.21,1.32,4.57-.53,6.65-2.4,1.54-4.29,5.13-7.88,2,4.74,1.1,5.35-1.28,4.92-5.31A324.85,324.85,0,0,1,373.16,511Z" transform="translate(-320 -156.16)"/><path class="cls-35" d="M584,564.93a3.46,3.46,0,0,1,3.71-1.9c7.19.7,14-2.25,21.1-2.69l-4.81-.49a275.63,275.63,0,0,1,31.85-2,4.27,4.27,0,0,1,.48.13c.45.17.88.77.33.84-4.92.66-9.87,1.23-14.82,1.71-11.51,1.12-22.8,3.88-34.37,4.5C586.31,565.1,585.15,565,584,564.93Z" transform="translate(-320 -156.16)"/><path class="cls-36" d="M379.19,467.8l-2,3.22c-.28-2.94-2.58-2-4.14-2-9.7.32-19.4.77-29.1,1.18a.73.73,0,0,1,.1-1.1c10.56-1.11,21.11-2.46,31.78-1.95C377,467.24,378.2,466.93,379.19,467.8Z" transform="translate(-320 -156.16)"/><path class="cls-37" d="M344.08,469.14c0,.37-.06.73-.1,1.1-2.29,1.51-4.68.75-7.11.1Z" transform="translate(-320 -156.16)"/><path class="cls-38" d="M377.89,562a170.59,170.59,0,0,1-1.78-51c2.83-11.08,5.64-22.17,13.95-30.78,1.6-1.65,3-3.49,5.49-4.33.13.54.48,1.16.31,1.37-9.12,11.21-11.9,24.63-13.38,38.47-2,18.26-.53,36.2,5.68,53.56,5,14.05,9.12,16.79,23.88,16.84,3.66,0,7.32,0,11-.07-1.59,3.57-4.45,1.73-6.8,1.46-7.48-.86-14.78.67-22.15,1.38a6.3,6.3,0,0,0-.75.05C385.78,581.35,381,572.14,377.89,562Z" transform="translate(-320 -156.16)"/><path class="cls-2" d="M465.42,234c20.66,9.18,42.81,8.88,64.59,10.81s43.5,5.8,65.13,9.45c23.91,4,47.84,8,71.45,13.67,3.65.87,5.43,2.41,6.56,6.09a369.25,369.25,0,0,1,12.62,58.35c.24,1.77.61,3.6-.13,5.4-44-10-88.81-13.07-133.72-15-22.32-1-44.63-1.05-66.95-.7-3.3.05-4.65-1.24-5.87-3.95-4.43-9.78-4.3-20.43-6-30.72-2.8-17.23-5.3-34.5-7.9-51.75A6.82,6.82,0,0,1,465.42,234Z" transform="translate(-320 -156.16)"/><path class="cls-39" d="M444.87,251l-.06-1a14.75,14.75,0,0,1-.34-1.95c-.77-3-1.35-5.76,3-6.22s7,1.37,7.51,5.19c1.55,12.17,4.38,24.14,5.8,36.33,1,8.72,2.59,17.38,3.12,26.15a18,18,0,0,0,1.81,8.71c2,4.64.08,4.82-3.74,4.11-10.78-2-21.62-3.65-32.37-5.75-8.75-1.7-8.68-1.9-9.78-11-1.25-10.25-2.73-20.54-2.14-30.84.64-10.92,3.72-21,14.31-26.86,5-3.37,7-2.57,8,3.11,3.64,20,4.17,40.2,3.75,56.58a432.09,432.09,0,0,0,.18-51.78A7.15,7.15,0,0,1,444.87,251Z" transform="translate(-320 -156.16)"/><path class="cls-40" d="M604.64,245.11c-14.28-2.2-28.57-4.32-42.83-6.64C539,234.76,516.19,231,493,231.14c-6.12,0-12.21-.46-17.83-3.31a38.34,38.34,0,0,1-8.91-7.08c-1.24-1.21-2.37-2.37-1.62-4.29,1.35-2.37,3-2.57,4.65-.41,2.58,3.4,4.46,7.73,10,6.53a.48.48,0,0,1,.44.21c2.57,6.56,7.88,2.42,12,3.23,13.88,2.77,28.23,1.33,42,5a7,7,0,0,0,3.38.26c-1.19-2.55-1.19-5,1-7.06,1.76-1.11,2.77-.35,3.15,1.42.21,1,.1,2,1.2,2.44a10.1,10.1,0,0,1,2.15,1.44c1.48,1.88,3.76.16,5.43,1.19.44,1.57,1,2.75,2.44.67a6.61,6.61,0,0,1,5.42.24,3.16,3.16,0,0,0,3.59-.11c2-2.73,4.08-4.29,7-1.16a21.57,21.57,0,0,0,3.11,2.36c3.68,1.94,5.67,1.1,7.87-3.32a1.48,1.48,0,0,1,1.15-.66c3.47,4.79,7.58,8.35,14.08,7.32a4.15,4.15,0,0,1,4.45.79,7.27,7.27,0,0,0,4.83,1.82,11.41,11.41,0,0,1,2.92,0,3.56,3.56,0,0,1,2.1,2.34C609.33,244.3,608.48,246.26,604.64,245.11Z" transform="translate(-320 -156.16)"/><path class="cls-41" d="M694.38,335.34c-1.5-23.25-8.57-45.23-12.64-68.89,4.38,5.42,8.11,10,11.78,14.6a6.26,6.26,0,0,1,1.47,3.64c.69,15,1.45,29.93,2.13,44.9C697.21,331.72,697.28,334,694.38,335.34Z" transform="translate(-320 -156.16)"/><path class="cls-42" d="M444.87,251c2.06,20.7,2.16,41.36-1.49,61.93-1.22-22.23-1.26-44.53-5.4-66.73l-6,1.66c.18-1.43-.78-3.57,2.08-3.34,3,.24,6.35.64,6.65,4.39S442.13,253,444.87,251Z" transform="translate(-320 -156.16)"/><path class="cls-43" d="M464.69,217.2c2.41,4.59,7.16,6.9,10.44,10.63-5.4-.52-8-5-11.18-8.4-2.6-2.77-5.72-5.44-6.42-9.9-.42-2.72.35-3.64,2.45-4.4a6.39,6.39,0,0,1,1.91-.55c11.22-.2,22.4-2.49,33.64-1.12a65.74,65.74,0,0,0,7.9.51c15.89,0,31.55,2.23,47.24,4.52,5.13.75,10.08,2.65,15.34,2.5l-.12,1.13c-2,1.76-4.36,1.24-6.64.86a469.76,469.76,0,0,0-51.75-5.84c-9.28-.48-18.55-.42-27.81-.8-5-.2-9.86,1.1-14.85,1.2-4.28.09-3.12,2.76-1.74,5.15A10.57,10.57,0,0,1,464.69,217.2Z" transform="translate(-320 -156.16)"/><path class="cls-44" d="M604.64,245.11c4,.24,3.42-2.53,3.29-5l.58-.33a2.86,2.86,0,0,0,3.37-1.42,3.42,3.42,0,0,1,3.36-.95,2.38,2.38,0,0,1,1.34,3c-.4,1.29-2.87.84-2.45,2.64.32,1.35,1.9,1.11,2.93,1.51a17.29,17.29,0,0,0,5.32,1.25,14.11,14.11,0,0,1,2.14.38c3.51.64,7.1.79,10.54,1.83,2.5.84,5.16.38,7.69,1,3.32.54,6.46,1.8,9.74,2.51,6.65,0,13,2.16,19.52,3,3.36.43,3.52-.61,2.59-3.06s-2.14-4.85-3-7.38c-.69-2.18-1.64-4.46.54-6.43a67.06,67.06,0,0,1,7.43,21L677,259c-4.21.94-8.06-1.11-12-1.77-16.06-2.67-32-6-47.92-9.44Z" transform="translate(-320 -156.16)"/><path class="cls-42" d="M463.9,309.47c-1.95-11.71-4-23.42-5.83-35.15-1.48-9.31-2.92-18.63-4.1-28-.6-4.78-4-2.79-6.39-3-2.81-.3-3.35,1.28-2.84,3.71a15.34,15.34,0,0,1,.07,3,3.27,3.27,0,0,1-.59-.78c-.86-2.74-3-5.65-.31-8.27,2.33-2.26,5-.37,7.47.38,3.17,1,4.84,3,4.69,6.66-.21,4.83,1.93,9.26,2.95,13.87a72.68,72.68,0,0,1,2.15,14.81C461.3,287.63,465.4,298.32,463.9,309.47Z" transform="translate(-320 -156.16)"/><path class="cls-45" d="M617,247.82c16,1.88,31.51,6,47.33,8.67,4.22.71,8.41,1.68,12.61,2.54-1,1.33-2.41,1.12-3.65.83-13.63-3.3-27.7-4.37-41.19-8.32C627.13,250.08,621.49,251.31,617,247.82Z" transform="translate(-320 -156.16)"/><path class="cls-46" d="M496.2,481.05a191.77,191.77,0,0,0,1.18,32.32,53.94,53.94,0,0,1-1.56,21.6c-.77,2.21-2.22,4.07-3.19,6.18-.68,1.5-1.33,3.33-3.43,2.88-1.9-.41-1.54-2.23-1.71-3.69-1.06-9.17-.68-18.48-2.52-27.56-.76-3.73-.69-7.57-1.71-11.25a7.56,7.56,0,0,1-.22-1.71c-.37-5.4-.18-10.82-1.2-16.18-.94-4.94.35-9.78,1.28-14.61,1-3.22,3.58-4.94,6.45-4.38A291.66,291.66,0,0,0,524,468.88c27.15.62,54.3.23,81.42-.92,20.78-.88,41.54-2.11,62.3-3.17,3.07-.16,5.83,0,3.26,4.25-3.72,1.85-6.2,5.41-10.11,7.09a28.45,28.45,0,0,1-15.67,1.67c-11.24-1.66-22.55-1.42-33.81-1.7-30.1-.77-60.19.32-90.28,1-6.12.14-12.23,1-18.39,1C500.34,478.12,497.76,478.71,496.2,481.05Z" transform="translate(-320 -156.16)"/><path class="cls-47" d="M496.2,481.05c.08-4.8,4.16-3.62,6.6-3.89,6.43-.71,12.92-1,19.4-1.07,29.43-.45,58.86-1.83,88.29-.83,11.93.4,23.9.27,35.81,1.56,8,.87,15.56-.44,21.65-6.4.83-.82,1.73-1.6,3-1.38-6.71,8.28-15.4,11.37-25.83,9.78A138.33,138.33,0,0,0,624.44,477q-37.38,0-74.76,0c-1.91,0-4-.74-5.7.91-13.39,0-26.8-.24-40.15,1.11C501.25,479.34,498.74,480.38,496.2,481.05Z" transform="translate(-320 -156.16)"/><path class="cls-48" d="M524,468.88a84.24,84.24,0,0,1-29.09-2.74C490.8,465,486.64,464.2,484,469c-.52.58-.8,1.59-1.94,1.08.17-4.33,2.62-6,6.74-6.15a34.62,34.62,0,0,1,10.29,1.31c6.46,1.74,13.05,1.94,19.68,1.82C520.72,467,522.83,466.67,524,468.88Z" transform="translate(-320 -156.16)"/><path class="cls-48" d="M480,492V473.05c.64-.69,1.28-1.39,1.93-2.08,1.5,5.74-.12,11.64,1,17.42.81,4.16.14,8.47,1,12.66h0a19.12,19.12,0,0,1,.07,10,36.82,36.82,0,0,1-2-12C481.87,496.45,481.67,494,480,492Z" transform="translate(-320 -156.16)"/><path class="cls-49" d="M483.93,501.05c-2.1-7.75-1.94-15.68-2-23.59,0-2.16,0-4.33,0-6.49a3.16,3.16,0,0,0,.08-.92L484,469C481.75,479.66,484.89,490.36,483.93,501.05Z" transform="translate(-320 -156.16)"/><path class="cls-49" d="M484,511q0-5-.07-10c2.14,6.43,2.16,13.19,3,19.8.78,6.32.78,12.74,1.14,19.12.08,1.27-.28,3,1.38,3.31,1.45.22,2-1.42,2.71-2.54,1.19-2,1.5-4.45,3.69-5.76-.68,4.84-3.76,8.63-5.63,12.95a1.62,1.62,0,0,1-2,1.05c-1.19-.34-1.15-1.44-1.22-2.44-.68-8.72-1.35-17.44-2.06-26.16C484.66,517.25,484.31,514.13,484,511Z" transform="translate(-320 -156.16)"/><path class="cls-2" d="M503.28,516.88c-1.75-1.64-1.38-2.93-.58-4.58C504.43,513.56,504.08,514.92,503.28,516.88Z" transform="translate(-320 -156.16)"/><path class="cls-50" d="M462.93,214.1A3.77,3.77,0,0,1,461,212c-2.29-4.44-1.94-5.31,3-5.85,18.8-2,37.58-.94,56.37.37,15.28,1.07,30.31,4.12,45.52,5.64l.25.7-.59.69c-4.19,1.67-8.53,1.3-12.75.5-27.37-5.2-55-6.23-82.74-5.5C465.93,208.62,464.32,211,462.93,214.1Z" transform="translate(-320 -156.16)"/><path class="cls-51" d="M601.71,218.2c13.54,3.37,27.31,5.58,41,8a25.63,25.63,0,0,1,7.78,1.09c.91.32,2,.57,1.36,2-3.65,1.89-7.48,1.43-11.19.51q-21.06-5.21-42.44-8.84c-9.11-1.53-18.27-2.86-27.36-4.55-2-.38-4.46-.43-5-3.24l.23-.34Z" transform="translate(-320 -156.16)"/><path class="cls-52" d="M565.91,213.16a8.44,8.44,0,0,0,4.51,1.86c12.4,2,24.74,4.55,37.19,6.19,10.21,1.34,20,4.6,30.13,6.2a80.78,80.78,0,0,0,14.52,1.46,9.58,9.58,0,0,1,6.3.14c5.44.55,10.7,1.48,14.2,6.33l-.57,2.36c-.94,5,2.07,8.89,3.74,13.16.72,1.85,2,3.9.31,5.52-1.52,1.42-3.37-.6-4.82-.64-6.61-.22-12.77-3.16-19.4-2.81-1.37-1.3-3.67-2.42-.88-4.52,1.38-.69,2.89-.57,4.37-.68,2.58-.21,5.8.2,6-3.54.19-3.24-.55-6.35-4.57-7.13a8.28,8.28,0,0,1-1.29-.57c-3.65-2.34-7.61-2.27-11.66-1.5a5.38,5.38,0,0,1-2.78-1c-6.62-2.15-13.32-3.52-20.27-2a6.7,6.7,0,0,1-3.89,0c-1.67-.79-3.22-1.94-5.22-1.74a13.9,13.9,0,0,1-3.58-.47c-1.59-.56-3.09-1.36-4.71-1.83-5.74-3.12-12-2.68-18.23-2.77-2.94-.41-3.81,2.11-5.3,3.76l-.07,0c-1,.29-1.52-.37-2-1.05-3-4.71-7.31-6.21-12.63-5.39a14.9,14.9,0,0,1-2.73-.58c-2.52-.19-5-2.73-7.56-.18-.82,5.26-.82,5.26-7.1,4.14-3.3-1.13-3.75-3.59-3.09-6.58-.14-4.59-3.72-3.29-5.83-2.81-3,.67-1.57,2.93-.64,4.68.46.86,1.11,1.68.58,2.75-1.31,2.94-4.39,6.2,2.34,7.68-4.58,2.78-8.48.73-12,.05-10-1.93-19.95-2.38-30-2.94-5.46-.3-10.8-2.16-16.25,0-.28.11-.91.08-.94,0-2-6.61-11.89-3.65-13.4-11.08-.64-3.21-2.5-2.13-4.07-.45-2.2-.12-1.59-1.83-1.76-3.1-.76-6.16-.29-7,6.09-7,15.3-.14,30.74-1.34,45.84.37,12.68,1.44,25.63,1.86,38.14,5.22C557.06,213.76,561.6,213.05,565.91,213.16Z" transform="translate(-320 -156.16)"/><path class="cls-12" d="M642.65,224.19a141,141,0,0,1-18.76-4.93L616,218c-4.73,2.66-9.56-.88-14.31.22,2.31,3.74,6.37,2.88,9.74,3.5,10.36,1.91,20.55,4.8,31.12,5.49.57-.17,1.43.81,4.43.81,2.68.76,2.58.12,5.26.87l2.37,0,3.13.88c5.16,1.35,10.76,1.75,14.32,6.57,1.64,1.55,1.92,4.53,4.9,4.68,1.35-7.56-3-12.24-12-12.34" transform="translate(-320 -156.16)"/><path class="cls-53" d="M645.6,400.19a12.45,12.45,0,0,1-2.4-.48c-2.65-1.14-5.13-.81-6.26,1.87-1.25,2.93-.36,5.88,2,8.09,2.21,2,4.42,1.84,6.34-.57,1.32-2.93,2.54-5.86.31-8.91Zm-3.72,7.62c-2.09.24-2-1.89-2.18-3.24s.1-2.73,2-2.63a2.09,2.09,0,0,1,2.13,2.35C643.2,405.43,643.68,407.6,641.88,407.81Z" transform="translate(-320 -156.16)"/><path class="cls-54" d="M565.07,222.14c6.5-2.29,10.79-.31,14.89,6.86-.09,2.5-.05,5.26-3.18,5.89A7.77,7.77,0,0,1,568,231c-1-1-1.77-2.26-2.75-3.32C564.59,225.86,563.37,224.05,565.07,222.14Z" transform="translate(-320 -156.16)"/><path class="cls-55" d="M580,229c.37-2.87.28-6.2,4.86-4.89a2.62,2.62,0,0,1,.82,1.1c.5,2.13-.6,4.64,1.67,6.56,1-2.51-2.68-4.92,0-7.2,3.31-1,4.61,1.08,5.65,3.61.87,2.89,2.68,5.55,2.11,8.79C588.59,238.75,583.61,236.13,580,229Z" transform="translate(-320 -156.16)"/><path class="cls-56" d="M592.23,229c-1.12-2.16-1.71-5-5.26-3.91a1.27,1.27,0,0,1-1.87,0q-.09-.48-.21-1c6.64-.08,13.37-.75,19.38,3.11,2.77,3.73,5,7.63,4,12.56l-.35.35-1.65-1.1a23.07,23.07,0,0,1-5.21-2.72c-3.3-2-4.88-4.62-2.82-8.43-1.83-.56-2.83.75-4.06,1.48A1.66,1.66,0,0,1,592.23,229Z" transform="translate(-320 -156.16)"/><path class="cls-57" d="M546.22,218.89c-.65,2.42-1.69,5,1.83,6.13,1.67,1.08,3.77,2.43,2.14,4.49-1.44,1.82-3.91,2-6.09.53L541.91,229c.25-3.48-1.65-5.68-4-8-1.75-1.75-1-4.28,1.81-4.76C542.25,215.78,545.11,215.49,546.22,218.89Z" transform="translate(-320 -156.16)"/><path class="cls-58" d="M553.79,221.08c.11-2.92,2.14-1.94,3.57-1.59,1.89.45,4,.21,5.64,1.58a20.84,20.84,0,0,0,1.64,6.07c-1.77,1.48-2.29,2.57-2.72,5.82-1.25.19-2.53,1.33-3.74-.11C554.83,229.63,554.91,225.13,553.79,221.08Z" transform="translate(-320 -156.16)"/><path class="cls-59" d="M553.79,221.08q2.21,5.88,4.39,11.77A14.74,14.74,0,0,0,552,232a2.17,2.17,0,0,1-2-.89c-2-.36-4.59,3.08-5.9-1,1.85-.45,4.21,1.09,5.56-.77s-.84-2.89-1.61-4.25a2.7,2.7,0,0,1,1,0C552.8,226.33,554.32,225,553.79,221.08Z" transform="translate(-320 -156.16)"/><path class="cls-60" d="M593.85,229c2.17-5.31,5.15-2.13,8.22-1.35-.81,2.44-4,.65-3.86,2.93s1.68,3.85,3.62,5.06c1.58,1,4.13.74,4.45,3.39l-2.06.73C597.39,237.7,594.27,234.47,593.85,229Z" transform="translate(-320 -156.16)"/><path class="cls-61" d="M546.22,218.89a6.84,6.84,0,0,0-1.2-.84c-2.25-.92-5.23-2.35-6.7-.17-1.64,2.42,1.46,3.8,3.13,5.25,1.11,1,2.17,2,3.22,2.92-.17,1.84-4.37-.41-2.75,2.93-1.63-.07-3.65.12-1.9-2.47,1-1.43,0-1.95-1-2.53-.71-.9-1.42-1.8-2.12-2.71-1.22-1.61-1.51-3.82-.46-5.1,1.88-2.28,4.91-1.24,7.36-.93C545.28,215.42,547.48,216.32,546.22,218.89Z" transform="translate(-320 -156.16)"/><path class="cls-62" d="M593.85,229c1.34,5.63,5.66,8.38,10.37,10.77-2.48.54-4.44-.56-6.11-2.17-.94-.9-1.76-1.34-2.94-.63l-2.94-8Z" transform="translate(-320 -156.16)"/><path class="cls-63" d="M561.92,233c-1.25-3-1.77-5.59,2.78-5.75.75-.16,1.13.54,1.73.74.72.92,1.68,1.71,1.59,3.05C565,228.47,563.46,230.77,561.92,233Z" transform="translate(-320 -156.16)"/><path class="cls-52" d="M550,231.06a1.94,1.94,0,0,1,2,.89c.17,1,1.54,2.11-.2,2.85a2.38,2.38,0,0,1-2.73-.46C547.66,232.83,549.83,232.2,550,231.06Z" transform="translate(-320 -156.16)"/><path class="cls-64" d="M608.28,239.75q-2-6.28-4-12.56c1.5.27,3.14.24,4.06,1.81,1.23,1.05,2.45,2.23,3.84.18A3.56,3.56,0,0,1,617,231c2.23,3.05,4,6.27,3.64,10.23-1.59,2.12-3.06,2.13-4.39-.26l-1.11-3c-1.7-1.6-2.71-1.26-3,1.08.09,1.19.14,2.47-1.35,2.8S609.07,240.49,608.28,239.75Z" transform="translate(-320 -156.16)"/><path class="cls-40" d="M651,249.05c-1.36,1.73,1.31,2.42,1,3.88L643,250c-2.45-2.09-5.14-2.18-8-1-3.65-.68-7.47-.5-11-2.07,1-2.4,3.46-2.15,5.35-2.93a31.21,31.21,0,0,1,7-.36c3.87.72,8.58-1.55,11.33,3.16C648.62,247.82,650.2,247.85,651,249.05Z" transform="translate(-320 -156.16)"/><path class="cls-40" d="M616.23,241c1.37.82,2.73,1.71,4.22.22,1.24-.13,2.1.66,3.06,1.23a1.55,1.55,0,0,1,.63,1.75c-.29.37-.65.84-1.08.86-1.46.07-1.88.61-1.07,1.9l-11.38-2.65C613.47,243.26,612.52,239.14,616.23,241Z" transform="translate(-320 -156.16)"/><path class="cls-52" d="M635,249.05c-.06-.71-.87-1.76.43-2a13.81,13.81,0,0,1,7.87,1.37c1.06.5,1.56,1.39-.31,1.55C640.32,249.58,637.45,250.94,635,249.05Z" transform="translate(-320 -156.16)"/><path class="cls-52" d="M622,246.91c-2.92-3.62,1.28-2.07,2.14-2.95a3.94,3.94,0,0,1,2.58-.1A3.19,3.19,0,0,1,629,245c-1.31,1.53-3.54.71-5,1.94Z" transform="translate(-320 -156.16)"/><path class="cls-65" d="M612.09,239c-.38-1.25-2.16-2.84-.49-3.67s3.35.34,3.52,2.59Z" transform="translate(-320 -156.16)"/><path class="cls-66" d="M647.13,248.12c-2.27-4.29-6.21-3.44-10-3.25-3.32-2.54-3.63-6.57-4.81-10.11-.74-2.19.6-3.52,3-3.21s4.6.32,6.6,1.66l1.74.93a3.56,3.56,0,0,1,2.89,3,15.77,15.77,0,0,0,3.17,7.93C651.57,247.71,650.26,249,647.13,248.12Z" transform="translate(-320 -156.16)"/><path class="cls-64" d="M656.07,235.86a1.1,1.1,0,0,0,.81.29,7.67,7.67,0,0,1,3,1.82c1.76,2.1,2.93,4.49,2.25,7.29-.55,2.27-2.52,3.1-4.58,3.16-2.84.08-5.74.82-7.69-2.83a35,35,0,0,1-3.32-8.76c-.49-2.15,0-3.31,2.43-2.82S654,234.19,656.07,235.86Z" transform="translate(-320 -156.16)"/><path class="cls-67" d="M642,233.21c-3,.53-6.68-2.7-8.49-.05-1,1.42,1.56,5.25,2.5,8,.43,1.24.82,2.48,1.22,3.72L629,245l-3.21-.25a6.37,6.37,0,0,1,.08-1c.33-1.71-2.44-3.63-.33-4.9,2.38-1.42,4.27.58,6.61,3a57.4,57.4,0,0,0-2.33-7.07c-1-2.76-3.37-3-5.74-2.26s-2.56,2.71-2.07,4.84c.4,1.75,1.56,3.31,1.31,5.22-1.55.62-2.15-.55-2.86-1.51-1.38-3.32-2.92-6.59-3.47-10.19,6.27-1.92,12.53-.54,18.81,0C638.08,231.19,640.48,230.84,642,233.21Z" transform="translate(-320 -156.16)"/><path class="cls-68" d="M656.07,235.86c-2.88-.42-7.06-2.48-8.31-.87-1.67,2.14,1.47,5.47,2.17,8.4s2.2,4.62,5.44,4.58c2.22,0,4.37-.13,5.62-2.19s.39-4.2-.8-6a30.57,30.57,0,0,0-3.31-3.64c5.78-.29,5.56,4.26,6,7.85.49,4.17-2.77,4.75-5.88,5-2,.15-4,0-6,.06-1.31-.24-2.84.45-3.88-.93.87-.55,4.17.69,2-2.06s-5.18-4.43-3.46-8.65c.29-.7-1.28-2.16-2-3.27C648.08,232.79,652.37,232.21,656.07,235.86Z" transform="translate(-320 -156.16)"/><path class="cls-69" d="M566.43,228l-1.73-.74c-.72-3.09-4.52-1.21-5.7-3.22,0-3.25,5.07,1.66,4-2.92a1.85,1.85,0,0,1,2.07,1.07C564.8,224.24,565.88,226,566.43,228Z" transform="translate(-320 -156.16)"/><path class="cls-70" d="M612.17,229.18c.16,1,1.62,2.23-.06,2.79-2.39.8-3.44-.8-3.78-3Z" transform="translate(-320 -156.16)"/><path class="cls-71" d="M570.89,224.22c3,.48,4.36,2.29,4.59,5.09.09,1.14,0,2.87-1.48,2.4-2.51-.78-3.67-3.09-4.41-5.57C569.18,224.76,569.86,224.38,570.89,224.22Z" transform="translate(-320 -156.16)"/><path class="cls-72" d="M585.1,225H587c.73,2,1.53,4,2.15,6,.29.94,1.56,2.16-.08,2.93a2.51,2.51,0,0,1-3-1.11C584.19,230.47,584.14,227.8,585.1,225Z" transform="translate(-320 -156.16)"/><path class="cls-73" d="M623.31,242.68c-.78-1.47-1.67-2.88-2.3-4.41-1.16-2.84-1.59-6.1,2-7,3.11-.74,7.21-1.58,8.24,3.68a43.33,43.33,0,0,0,2.16,6.09c.36,1,1.4,2.25-.3,2.9a2.07,2.07,0,0,1-2.76-1.51c-.72-2.58-2.41-3.24-4.72-3.05-.59,1.89,3.55,3.5.11,5.38l-1.65-.83Z" transform="translate(-320 -156.16)"/><path class="cls-74" d="M639.2,240.5c.3-1.86-2.31-3-.33-4.48a2.24,2.24,0,0,1,2.15.52C642,238.28,640.21,239,639.2,240.5Z" transform="translate(-320 -156.16)"/><path class="cls-75" d="M657.27,242c0,1.53-.46,3.2-2,2.82-2.49-.59-2-3.42-2.94-5.24-.51-1,.3-1.63,1.23-1.47A4.15,4.15,0,0,1,657.27,242Z" transform="translate(-320 -156.16)"/></svg>