<svg id="Layer_1" data-name="Layer 1" xmlns="http://www.w3.org/2000/svg" viewBox="0 0 619.64 467.44"><defs><style>.cls-1{fill:#731839;}.cls-2{fill:#73193a;}.cls-3{fill:#721a39;}.cls-4{fill:#731939;}.cls-5{fill:#721a3a;}.cls-6{fill:#701b3a;}.cls-7{fill:#fcf3f9;}.cls-8{fill:#f5df19;}.cls-9{fill:#701e3a;}.cls-10{fill:#fbf1f8;}.cls-11{fill:#6f203b;}.cls-12{fill:#faf1db;}.cls-13{fill:#f1de2f;}.cls-14{fill:#6b273e;}.cls-15{fill:#6c2e43;}.cls-16{fill:#ece54d;}.cls-17{fill:#ece056;}.cls-18{fill:#652f41;}.cls-19{fill:#f8f8c0;}.cls-20{fill:#f3e1a0;}.cls-21{fill:#f0e972;}.cls-22{fill:#f9f5d7;}.cls-23{fill:#653245;}.cls-24{fill:#684a54;}.cls-25{fill:#63434e;}.cls-26{fill:#633645;}.cls-27{fill:#623746;}.cls-28{fill:#765f67;}.cls-29{fill:#7f4b5d;}.cls-30{fill:#5a3a44;}.cls-31{fill:#6c2c41;}.cls-32{fill:#f7df9d;}</style></defs><title>Moto</title><path class="cls-1" d="M302.07,523.26c-16.62,22-30.84,45-34.55,73.37-4.76,36.51,11.88,75.83,42.43,93.46,32.2,18.58,64.6,17,95.31-3.75,18.27-12.36,28.87-31,37.13-51,1.71-4.13,3.19-8.35,4.77-12.53,2.49-1.22,4.5-1.6,4.06,2.32-3.91,52.62-48.56,97.24-100.49,98.31-32,.66-60.29-10.89-81.75-35.22-10.4-11.79-21.36-22.9-32.1-34.31-39.36-41.81-36.68-112.2,4.63-154.48a111.37,111.37,0,0,1,29-21.71c2.18-.85,4.31-1.61,4.51,2-29.71,33.07-48.49,69.84-39.18,116.07a115.3,115.3,0,0,0,3.36,11.84c.58,1.85,1.48,3.6,3.49,8.38,1.84-38.94,15.59-68.74,44.65-90.6,3.13-1.81,6.71-2.58,9.87-4.44C299.2,519.76,301.85,519.58,302.07,523.26Z" transform="translate(-208.88 -255.99)"/><path class="cls-2" d="M372.8,271.75c-22.58,23-42.08,47.92-51.12,79.57-1.22,4.27-2.71,8.52-1.73,13.1a16.88,16.88,0,0,0,11.12,12.63c4.66,1.57,5.44-4.81,7.53-7.78,18.2-25.81,40.75-47.17,66.29-65.53,2.4-.51,3.37.4,2.82,2.83-18.33,19.2-35.48,39.17-46.14,64C348.14,401.85,349,405.89,379.11,421s58.62,31.9,80.25,58.4c6.29,7.71,12.61,15.4,16.76,24.57,1,3.77,3.34,7.84-2.32,10.06-6.81-1-8.94-7.11-12-11.75-16.17-24.25-36-44.2-63.59-55.17-21-8.34-40.17-21.16-63-24.79-18.54-6-18.86-6.13-11.67-25.53,2.05-5.53.47-7.32-4.11-9.08-8.13-3.12-16.8-4.26-25.2-4.6-10.64-.45-10.93-5.18-8.18-13A148.55,148.55,0,0,1,306.38,331,273.52,273.52,0,0,1,370,268.46C372.33,268.38,373.44,269.33,372.8,271.75Z" transform="translate(-208.88 -255.99)"/><path class="cls-3" d="M507.17,659.39c35.36-47.77,141.77-95.45,192.66-87.34-32.48,8.47-63.42,17.21-93,30.11-12.65,5.51-25,11.59-36.07,19.86-3,2.22-7.36,4.84-5.89,8.78,1.71,4.59,6.62,1.89,10,1.4,64-9.33,127-23.47,189.22-41.2,2.28-.65,4.42-2.06,9.71.35C688.06,628.76,599.36,645.06,507.17,659.39Z" transform="translate(-208.88 -255.99)"/><path class="cls-3" d="M604.06,438.72C577,442,551.44,451.19,525.27,458c-8.92,2.32-17.76,4.93-26.63,7.41-1.37-1.36-1.29-2.84-.36-4.38,32.35-16.57,65.28-31.8,100.3-41.94,21.06-6.1,29.46-2.66,41.25,16.11,3.1,4.94,6.07,10,8.82,15.11,4.64,8.65,10.68,11.75,21.08,9.45a721.21,721.21,0,0,0,130.91-41.94c4.6-2.07,7.91-8.7,14.41-4.06-9.14,12-23.56,16.36-35.29,24.63-2.73,4.51-7.3,6.58-11.71,8.87-11.12,4.39-21.9,9.63-33.2,13.59-2.4.8-4.82,1.52-7.18,2.43-6.91,2.36-13.93,4.36-21,6.34C690,473.25,673.5,478,656,474.7c-13.35-2.48-23.25-9.3-27.73-21.85-3.7-10.38-9-15.83-20.39-12.9C606.5,440.3,605.19,439.57,604.06,438.72Z" transform="translate(-208.88 -255.99)"/><path class="cls-3" d="M728.3,500.74c29-9,63.32,2.41,81.92,27.24,28.15,37.57,23,98.9-9.72,132.08-26.68,27.06-78.44,26.48-105.84.81-.41-3.35.89-4.36,4-2.89,10,6.95,30.65,12.06,41.19,10l-5.78-8c.83-1.88,2.06-2.91,4.21-2,7.18,9,16,10.3,26.4,6.22,32.32-12.61,44.45-39,48.15-70.81,2.27-19.5-.46-38.39-11.51-55.38-6.7-10.29-14.94-13.82-27.12-11.48-15.43,2.95-26.26,12.79-36.28,23.88-3.13,3.47-6.1,7.07-10.07,11.69,3.66-25,21.24-40.88,50.47-46-9.13-7.63-19.16-10.09-29.47-11.9-5.22-1.24-10.52-.21-15.76-.64C731.1,503.5,728,504.75,728.3,500.74Z" transform="translate(-208.88 -255.99)"/><path class="cls-4" d="M477.53,540.68a125.6,125.6,0,0,1-8.71,82.51c-1.31,2.84-1.43,6.94-6.83,7.86,4.79-35.77,1.23-70.16-13.71-103.18-4.49,1.67-5.22,6.16-7.36,9.34-15.63,23.15-33.23,44.74-51.33,65.95-1.28,1.49-3.23,2.4-4.87,3.59-4.74-4.47-.13-7.67,1.83-10.76,14.55-22.84,27.68-46.45,40.17-70.48,6.12-11.77,8.89-22.06-2.33-32.08-2.6-2.32-3.61-5.72-4.58-9-14-17.84-32.06-30.8-51-42.67q-4.35-2.72-8.72-5.41c-.44-2,.8-2.75,2.35-3.31,9.68.51,17.31,6.28,25.34,10.56,32.85,17.48,61.56,39.92,81.13,72.29C473.41,523.38,477.92,531.28,477.53,540.68Z" transform="translate(-208.88 -255.99)"/><path class="cls-4" d="M708.49,497c-65,42.66-131.41,83.27-192.8,131.23C564,561.06,625.07,512.6,708.49,497Z" transform="translate(-208.88 -255.99)"/><path class="cls-5" d="M463.64,304.77c-6.55,16.94-11.23,34.22-13,52.21-1.6,16.28,5.16,24.49,21.69,25.67a84.14,84.14,0,0,0,34.58-4.47c14-5,26.95-3.12,40.12,2,14.39,5.56,27.91,12.64,39.69,23.3-9.66-2.78-19.33-5.59-29-8.35-18.35-5.25-36.15,0-54,3-16,2.75-31.92,5.28-48.08,1.3-12-3-18.59-9.3-19.29-21-1.63-27.12,7.05-51.26,22.81-73.07a3.11,3.11,0,0,1,1.7-1.08C461.42,304.17,462.1,304.49,463.64,304.77Z" transform="translate(-208.88 -255.99)"/><path class="cls-6" d="M369.93,594.87c17.46-32.61,34.67-65.33,48.2-99.84,10.61.49,16,7.25,13.8,17.43-1.48,6.86-5.45,12.59-8.8,18.57a546.69,546.69,0,0,1-40.69,62.06,40.58,40.58,0,0,1-9.74,9l-.63-.29C367.35,600.75,369.61,597.51,369.93,594.87Z" transform="translate(-208.88 -255.99)"/><path class="cls-7" d="M477.53,540.68C457,485.89,412.66,456.83,362.41,434.16c-7.47-1.46-13.91-5.66-21.08-7.93l-6.14-3.87c7.7-1.47,14.82,0,21.94,3.32,14.58,6.86,29.21,13.66,44.15,19.67,29.15,11.73,48.33,34.19,65.42,59.11,1.94,2.83,3.79,5.72,5.68,8.58,6.09,6.45,13.81,12.07,11.47,22.77C481.58,537.23,478.75,537.9,477.53,540.68Z" transform="translate(-208.88 -255.99)"/><path class="cls-8" d="M590,447.16l5.91-2.08c1.12-1.54,3-1.39,4.52-2,14.75-6.09,19.28-4.93,26.66,9.51,5.87,11.47,14.77,19.27,25.47,25.59a23.49,23.49,0,0,0,3.88,1.2c2.85.83,6.73,1.2,6,5.33-.66,3.74-4.33,2.19-6.79,2.43-6.52.62-12.62-1.77-18.91-2.85-9.67-3.15-15.13-10.64-18-19.59-2.38-7.34-6.36-8.28-13.16-7.27a347,347,0,0,0-48.61,10.42c-2.23.65-5,1.84-6.3-.71-1.39-2.81,1.43-3.93,3.55-4.88s4.43-1.62,6-3.46A148.37,148.37,0,0,1,590,447.16Z" transform="translate(-208.88 -255.99)"/><path class="cls-9" d="M661.62,429.7c-14.61-15.52-21.24-38.48-42.78-47-19.93-7.84-41.31-9.69-62.78-10.66,12.91-7,49-6.14,68.26,1.45C650,383.65,652.64,408.69,661.62,429.7Z" transform="translate(-208.88 -255.99)"/><path class="cls-10" d="M372.7,602.13c17.09-22.87,33.53-46.19,47.74-71,2.2-3.85,4.38-7.74,6.29-11.74,7-14.72,6.47-16.21-8.6-24.35-.45-3.7-.4-7.31,1.68-10.61a3.5,3.5,0,0,1,.9.48c18.28,19.83,18.38,19.88,6.83,44.24-12.08,25.45-26.92,49.34-42.07,73-.8,1.26-4.09,2.49-.75,4.57-1.21,1.31-3.9,3.89-3.75.57C381.34,599.36,376.65,601.85,372.7,602.13Z" transform="translate(-208.88 -255.99)"/><path class="cls-11" d="M804.75,411.62q-42.87,7.78-85.75,15.56c-10.06,1.84-20.11,3.76-32.47,6.08,9.41-11.07,20.55-14.52,31.47-16.6,30-5.74,60.58-7.45,91.07-9.15,1.59-.09,3.55-.49,3.78,2.07C810.63,412.18,807.73,412.07,804.75,411.62Z" transform="translate(-208.88 -255.99)"/><path class="cls-12" d="M649.57,479.89c-10.8-7-19.42-15.68-25.39-27.5-6.3-12.47-7-12.1-28.28-7.31,1.46-3.74,6.25-3.2,8.16-6.36,2.31-.64,4.6-1.34,6.93-1.92,9.68-2.38,15.65-.52,18.18,11,4.3,19.54,20.72,27,44.71,25,11.23-.94,22.33-3.54,33.49-5.4a2.9,2.9,0,0,1,.09,3.33C689.07,479.44,670.07,484.38,649.57,479.89Z" transform="translate(-208.88 -255.99)"/><path class="cls-13" d="M649.57,479.89c20.15,1.27,38.88-5.15,57.76-10.69a133.64,133.64,0,0,1,23.18-7.57c2.73.14,6-.57,6,3.85-24.42,11.88-50.44,18.42-77.12,22.36-7.61,1.13-15.65,1.13-22.64-3.56,8-1.69,15.85,4.27,24.75.45C658.22,480,652.1,484.15,649.57,479.89Z" transform="translate(-208.88 -255.99)"/><path class="cls-14" d="M483.85,535.81c-1.67-8.68-8.12-14.95-11.47-22.77,5.18-1.38,2.78-5.9,3.74-9,13.74,19.86,20.74,42.43,26.52,65.53C494.78,559.12,492.05,546,483.85,535.81Z" transform="translate(-208.88 -255.99)"/><path class="cls-15" d="M369.93,594.87c.54,2.38-.22,5.15,2.14,7,.11.76.21,1.53.32,2.29-2.31,6.85-6.68,12.17-12.32,16.53l-10.27,11L348,630.46Z" transform="translate(-208.88 -255.99)"/><path class="cls-16" d="M560.76,459.65a8.41,8.41,0,0,1-5.69,4c-1.63.3-3.79,1-2.84,3,.46.95,3.07.86,4.71,1.24-9.09,5.11-19.55,5.23-29.26,8.11-1.07.38-2.3.05-2.33-.93-.07-2.72,3.24-1.82,4.23-3.54,8.84-6,19.6-7.54,28.92-12.43C559.49,458.37,560.25,458.52,560.76,459.65Z" transform="translate(-208.88 -255.99)"/><path class="cls-17" d="M736.5,465.48c-1.53-2.46-4.08-2-6.37-2.17-.68-.78-2-.95-2.11-2.27,1.39-1.77,3.28-2,5.34-1.81,7.88-1.64,15.26-4.74,22.62-7.88,2.86-1.22,6.29-4.32,7.47,1.77A69,69,0,0,1,736.5,465.48Z" transform="translate(-208.88 -255.99)"/><path class="cls-18" d="M302.07,523.26c-5.46-3.09-9.31,4.91-14.72,2.11,7.51-7.42,16.64-12.16,28.36-17.58C311.08,515.08,307.35,519.82,302.07,523.26Z" transform="translate(-208.88 -255.99)"/><path class="cls-19" d="M560.76,459.65l-2.26-.6c7.83-11,20.17-10.09,31.49-11.89C580.38,451.64,571.55,457.94,560.76,459.65Z" transform="translate(-208.88 -255.99)"/><path class="cls-20" d="M763.45,453.12c-6.89-4.19-11.4,3.09-17.39,3.87-4.15.54-8.22,2.63-12.7,2.24l33.94-14.3c2.8,1.26,4.38,3,2.33,6.09Z" transform="translate(-208.88 -255.99)"/><path class="cls-21" d="M529.58,471.48c.4,1.93-4.25,1.72-1.9,4.47-5.57,7.51-14.92,2.72-21.55,7C511.87,474.56,521.31,474.27,529.58,471.48Z" transform="translate(-208.88 -255.99)"/><path class="cls-22" d="M769.63,451c.32-2.45-1.08-4.24-2.32-6.1l12.45-6.53C782.76,447.93,781.07,450.05,769.63,451Z" transform="translate(-208.88 -255.99)"/><path class="cls-23" d="M738.26,658.05l-4.21,2c-6.26-6.7-7.81-15.32-9.37-24.09C728.53,643.8,734.11,650.47,738.26,658.05Z" transform="translate(-208.88 -255.99)"/><path class="cls-24" d="M407.71,306.57l-2.82-2.83c6.14-5.65,12.62-10.77,21.45-12.5Z" transform="translate(-208.88 -255.99)"/><path class="cls-25" d="M372.8,271.75,370,268.46c5.84-5.67,12.43-10.24,21-12.47Z" transform="translate(-208.88 -255.99)"/><path class="cls-26" d="M451.22,625.09a4.28,4.28,0,0,0-4.06-2.32q2.28-9.62,4.57-19.21C453.4,610.94,454.16,618.12,451.22,625.09Z" transform="translate(-208.88 -255.99)"/><path class="cls-27" d="M698.64,658a4.06,4.06,0,0,0-4,2.89c-5.5-3.13-8.45-8.36-10.81-14.35Z" transform="translate(-208.88 -255.99)"/><path class="cls-28" d="M728.3,500.74c6.25,4.61,14.28-1.07,20.53,3.56H716.94C722.29,502.22,724.85,500.38,728.3,500.74Z" transform="translate(-208.88 -255.99)"/><path class="cls-10" d="M360.07,620.66l12.32-16.53C372.94,613.12,367.89,617.92,360.07,620.66Z" transform="translate(-208.88 -255.99)"/><path class="cls-29" d="M341.33,426.23c7.88.37,14.61,3.81,21.08,7.93l-2.36,2.18C353.56,433.45,346.65,431.3,341.33,426.23Z" transform="translate(-208.88 -255.99)"/><path class="cls-30" d="M498.28,461c.11,1.46.23,2.92.35,4.38-5.14,2.2-10.18,4.94-18.19,3.52Z" transform="translate(-208.88 -255.99)"/><path class="cls-31" d="M275,479.68l-4.51-2c3.66-2.76,7.32-5.5,12.86-5.77C280.65,475.32,278.68,478.4,275,479.68Z" transform="translate(-208.88 -255.99)"/><path class="cls-32" d="M728,461c.71.75,1.41,1.51,2.11,2.27-8,.6-14.69,5.89-22.8,5.89,0-.61,0-1.22,0-1.83C713.92,464.16,721,462.63,728,461Z" transform="translate(-208.88 -255.99)"/></svg>