<svg id="Layer_1" data-name="Layer 1" xmlns="http://www.w3.org/2000/svg" viewBox="0 0 737.55 346.51"><defs><style>.cls-1{fill:#73183b;}.cls-2{fill:#72183a;}.cls-3{fill:#731839;}.cls-4{fill:#721a3a;}.cls-5{fill:#6f1c39;}.cls-6{fill:#711a39;}.cls-7{fill:#74193c;}.cls-8{fill:#721b3a;}.cls-9{fill:#711b3a;}.cls-10{fill:#721c3a;}.cls-11{fill:#62283d;}.cls-12{fill:#7a515f;}.cls-13{fill:#8a6774;}.cls-14{fill:#f7d9e9;}.cls-15{fill:#6b2c27;}.cls-16{fill:#fccc52;}.cls-17{fill:#fcfdfd;}.cls-18{fill:#6f1d39;}.cls-19{fill:#702e09;}.cls-20{fill:#f9e00f;}</style></defs><title>Voiture</title><path class="cls-1" d="M314.63,443.86c8.89-8.1,17.6-13.69,26.53-18.9,42.19-24.64,88-39,135.84-47.48,52.38-9.33,105.15-10.8,158.14-7.45,9.74.61,9.84.69,6.43,9.43-6.22,16-14,31-25.54,43.93-13.66,15.27-32.06,19.92-51.09,22.75-31.17,4.63-62.46,1.26-93.71.56-49.6-1.11-99.18-3.3-148.8-3.33C320.42,443.36,318.4,443.61,314.63,443.86Z" transform="translate(-96.37 -336.62)"/><path class="cls-2" d="M605.16,360.72c-19.82.57-39.65.83-59.45,1.75-44.65,2.07-89.35,3.08-132.5,17.58-27.28,9.17-51.83,23.33-76.62,37.28-4.63,2.61-9.31,5.14-14,7.7-1.62.52-2-.2-1.66-1.65l-.21-.36c1-2,2.4-3.5,3.14-3.74-.71.37-2.54,2-5,2.2H235.29l-.36-2.27c13.53-11.47,28.89-20.15,44.79-27.8,44.9-21.61,92.61-33,141.92-38.57a513.2,513.2,0,0,1,95.39-2l-22.25,5.9c35.83-1.51,71.58-1.87,107.35-.38C603.06,357.84,610.34,355,605.16,360.72Z" transform="translate(-96.37 -336.62)"/><path class="cls-1" d="M632.4,450.08a85.2,85.2,0,0,1,36.29-4.77c17.45,1.48,34-.49,48-13.95-18.53-7-36.59-10.86-54.94-.52-6.64,3.74-13.28,7.49-20,11.11-2.61,1.41-5.16,3.22-9.42,2.63,6.06-22.59,10.17-45.68,23.28-65.46,8.39-12.67,22-16.83,35.45-10,29.31,15,54.73,35,74.31,61.85,1.2,1.63,1.95,3.58,3,5.29,2.29,3.61,2.18,5.74-2.84,6.3-34.82,3.95-69,12.49-104,14.82C651.68,458,641.73,457.73,632.4,450.08Z" transform="translate(-96.37 -336.62)"/><path class="cls-3" d="M260.75,516.34c27.65-18.09,58-19.31,88.78-17.85,36.73,1.76,73.15,6.56,111.46,12.7-12.72,5.3-24.33,7.36-35.82,9.92-25.39,5.67-50.68,1.44-76-.68-27.17-2.27-54.35-3.58-81.59-1.84C264.9,518.76,263,518.43,260.75,516.34Z" transform="translate(-96.37 -336.62)"/><path class="cls-4" d="M473.12,532c-8.23,13.37-14.62,27.68-22.83,40.94-14.13,22.8-35.46,31.43-61.52,30.54a700.1,700.1,0,0,1-101.52-10.83c5.25-.33,10.5-.79,15.76-1,31.47-1.13,63-2,94.42-3.35,22.26-1,40.75-9.17,53.1-29C456.78,549.31,463.71,539.64,473.12,532Z" transform="translate(-96.37 -336.62)"/><path class="cls-5" d="M243,398.84c31.07-22.84,63.59-43.12,101.51-52.38,27-6.6,54.83-7.73,82.54-9,38.94-1.8,77.82-.46,116.68,2,2.39.15,5.07-.57,8.47,2.91-12,0-22.7,0-33.35,0-42.78-.06-85.52,1.11-128.14,4.75-42.95,3.66-82.89,16.93-119.9,39.11-8.48,5.08-17.28,9.62-25.94,14.42C243.23,401.07,242.75,400.33,243,398.84Z" transform="translate(-96.37 -336.62)"/><path class="cls-6" d="M176.65,471.87c-10.62-6.64-12-15.69-13.7-26-8,8.34-12.08,18-14.63,28.07-1.21,4.79,4.52,5.81,8.87,9.76-13.62-3.62-13.3,6-15.3,13-7.18,25.16-8.21,51.06-8.91,77a40.42,40.42,0,0,1-.49,7.2c-10.77-41.59-8.53-82.26,8.94-121.73C148,444.47,159,434.58,174.61,430c7.94-2.33,15.84-4.82,25.7-7.83-6.17,6.72-12.72,8.88-18.65,11.87-13.23,6.64-14.43,9-10.1,23.18C172.87,461.5,174.49,465.69,176.65,471.87Z" transform="translate(-96.37 -336.62)"/><path class="cls-7" d="M277.93,546.29c47.4-16.48,93.51-5.42,139.47-2.29-20.72,6.25-41.8,7.38-63.12,5.69-20.56-1.62-41.13-2.5-61.76-2.46C288.28,547.23,284,550.6,277.93,546.29Z" transform="translate(-96.37 -336.62)"/><path class="cls-8" d="M418.35,564.48a192.29,192.29,0,0,1-61.84,5.25c-26.09-1.86-52.18-3.87-80.51-1.34a81.92,81.92,0,0,1,35.28-10.34c34.36-2.18,68.51,1.47,102.63,5.05A27.63,27.63,0,0,1,418.35,564.48Z" transform="translate(-96.37 -336.62)"/><path class="cls-9" d="M610.21,470.52c-26.65-1-51.58,3-75.37,13.56a189.08,189.08,0,0,1-36.07,11.8,22.09,22.09,0,0,1-9.35.51c24.8-14.42,48.84-29.76,77.77-34.36C580.27,460,598.33,462.92,610.21,470.52Z" transform="translate(-96.37 -336.62)"/><path class="cls-10" d="M603.43,478.62c-4.19,13.26-12.16,23.51-24.23,30.14-17.06,9.38-35.24,7.61-53.41,4.26-5-.91-9.85-2.17-15.3-3.38,2.64-3.12,5.81-1.94,8.51-2,21.1-.67,42-1.62,61.22-12.22C588.64,490.73,595.84,484.57,603.43,478.62Z" transform="translate(-96.37 -336.62)"/><path class="cls-11" d="M605.16,360.72c2.23-3.69-2.31-2.73-3-4.39l56.13,2.93c0,.49,0,1,0,1.46Z" transform="translate(-96.37 -336.62)"/><text x="-96.37" y="-336.62"></text><path class="cls-1" d="M693.24,520.22l2.46.85a4.7,4.7,0,0,1,1.27.61,2.32,2.32,0,0,1,.69.8c.66,1.28.12,2.34-1.59,3.23l-2.22,1.17-1.54-1.56,2.14-1.14a1.57,1.57,0,0,0,.48-.33.27.27,0,0,0,0-.32.5.5,0,0,0-.14-.15,1.34,1.34,0,0,0-.31-.14l-.3-.11-2.27-.78a6.14,6.14,0,0,1-1.38-.62,2.55,2.55,0,0,1-.75-.84,1.82,1.82,0,0,1-.17-1.77,3.82,3.82,0,0,1,1.74-1.51l2.06-1.07,1.56,1.57-2,1a1.72,1.72,0,0,0-.52.34.24.24,0,0,0,0,.3.55.55,0,0,0,.16.18,2.87,2.87,0,0,0,.4.16Z" transform="translate(-96.37 -336.62)"/><path class="cls-1" d="M700.33,521.22c.32.62.63,1.24.94,1.86l-1.87.93c-.31-.62-.63-1.24-.95-1.86C699.07,521.84,699.7,521.52,700.33,521.22Z" transform="translate(-96.37 -336.62)"/><path class="cls-1" d="M707,510.12l1.47,1.66c-1.17.51-2.33,1-3.49,1.55l.67,1.36,3.18-1.41c.11.72.21,1.44.32,2.17-.87.37-1.72.76-2.58,1.14.33.68.66,1.36,1,2a4.87,4.87,0,0,0,.71,1.19c-.47.74-.94,1.47-1.39,2.21a3.47,3.47,0,0,1-.72-.71,7.13,7.13,0,0,1-.65-1.16q-1.86-3.84-3.81-7.64Q704.27,511.29,707,510.12Z" transform="translate(-96.37 -336.62)"/><path class="cls-1" d="M711.82,507.87a5.63,5.63,0,0,1,3.63-.5,3.7,3.7,0,0,1,2.19,2.27,6.69,6.69,0,0,1,.47,4.35,3.7,3.7,0,0,1-2.19,2.75,3.93,3.93,0,0,1-3.6-.44,7.52,7.52,0,0,1-3-3.4,3.26,3.26,0,0,1-.19-2.92A5,5,0,0,1,711.82,507.87Zm1,2a2,2,0,0,0-1.17.88,1.59,1.59,0,0,0,.16,1.32,6.19,6.19,0,0,0,1.59,2.15c.66.56,1.2.75,1.63.57s.65-.68.68-1.52a5.67,5.67,0,0,0-.53-2.58,1.72,1.72,0,0,0-.91-1A2.08,2.08,0,0,0,712.82,509.83Z" transform="translate(-96.37 -336.62)"/><path class="cls-1" d="M724.47,503.22q1.81,4.35,3.51,8.74l-3.44,1.22a5.14,5.14,0,0,1-3.45.31,3.86,3.86,0,0,1-2.12-2.34,8,8,0,0,1-.63-2.39,18.47,18.47,0,0,1,0-3.31c.88-.34,1.76-.67,2.65-1a16.94,16.94,0,0,0-.1,3.22,7.52,7.52,0,0,0,.47,2.39,2,2,0,0,0,1,1.2,3,3,0,0,0,1.83-.23l.52-.19q-1.35-3.37-2.79-6.75Z" transform="translate(-96.37 -336.62)"/><path class="cls-1" d="M731.37,500.91c.47.59.94,1.18,1.4,1.78l-1.54.49a3.15,3.15,0,0,0-1.64.93,1.54,1.54,0,0,0,0,1.45,3.27,3.27,0,0,0,1.91,2,4.88,4.88,0,0,0,3.23-.1c0,.73.06,1.46.08,2.19l-.4.13a5.77,5.77,0,0,1-4.41-.31,5.93,5.93,0,0,1-3-3.27,3.28,3.28,0,0,1,0-2.86,4.11,4.11,0,0,1,2.51-1.86Z" transform="translate(-96.37 -336.62)"/><path class="cls-1" d="M740.92,498.06q1.58,4.47,3,8.95l-2.52.7c-.45-1.35-.91-2.69-1.37-4l-2.66.77c.31.86.61,1.71.91,2.57a9.3,9.3,0,0,0,.34.88,2.82,2.82,0,0,0,.31.54c-.6.67-1.19,1.35-1.77,2a5,5,0,0,1-.65-.86,9.37,9.37,0,0,1-.53-1.27q-1.43-4-2.94-8c.85-.27,1.71-.53,2.56-.78.36,1,.71,1.9,1,2.86l2.67-.79c-.33-1-.68-1.91-1-2.87Z" transform="translate(-96.37 -336.62)"/><path class="cls-1" d="M750.45,505.33c-.29-1-.58-1.92-.88-2.87-.94.23-1.88.46-2.81.71a6.27,6.27,0,0,0,1.88,2.61c-.56.59-1.12,1.19-1.67,1.79A8.91,8.91,0,0,1,744,503.5a5.42,5.42,0,0,1,.27-4.7,6.56,6.56,0,0,1,4.32-2.74l1.46-.35c.42.62.84,1.25,1.25,1.89l-1.72.4a5.55,5.55,0,0,0-2.46,1.1,2.91,2.91,0,0,0-.79,2l2.58-.65-.57-1.77L751,498c.69,2.23,1.37,4.46,2,6.69Z" transform="translate(-96.37 -336.62)"/><path class="cls-1" d="M752.13,495.23c1.44-.33,2.88-.65,4.33-1a5.66,5.66,0,0,1,3,0,2.25,2.25,0,0,1,1.4,1.63,2.42,2.42,0,0,1-.08,1.62,5.37,5.37,0,0,1-1.3,1.68,18.37,18.37,0,0,0,1.76,1.68c.61.51,1.34,1.06,2.2,1.65l-1.83,1.81a27.08,27.08,0,0,1-5.4-4.89,12.32,12.32,0,0,0,1.46-1.7,1.22,1.22,0,0,0,.26-1c-.11-.39-.52-.52-1.21-.37l-.5.1c-1.35.29-2.7.59-4,.9C752.16,496.67,752.15,496,752.13,495.23Zm3.26,1.74c.67,2.26,1.32,4.51,2,6.78-.87.18-1.73.37-2.59.57q-1-3.39-2-6.76Z" transform="translate(-96.37 -336.62)"/><path class="cls-1" d="M761.64,493.24c1.32-.26,2.64-.5,4-.73a5.92,5.92,0,0,1,3.72.3,3.69,3.69,0,0,1,1.81,2.58,5,5,0,0,1-.19,3.08,4.51,4.51,0,0,1-1.57,2.16,8.12,8.12,0,0,1-1.79,1,11,11,0,0,1-1.91.49l-1.7.32q-.87-3.42-1.81-6.83l2.7-.5c.42,1.6.84,3.19,1.24,4.78a3.29,3.29,0,0,0,2-1.47,3.11,3.11,0,0,0,.27-2.44,1.6,1.6,0,0,0-.89-1.25,4.65,4.65,0,0,0-2.25,0l-3.63.67C761.61,494.68,761.62,494,761.64,493.24Z" transform="translate(-96.37 -336.62)"/><path class="cls-12" d="M243,398.84c.63.58,1.25,1.17,1.87,1.76-3.44,2.85-7.15,5.19-12.25,5.08Z" transform="translate(-96.37 -336.62)"/><path class="cls-13" d="M321,423.38l1.66,1.65-9.71,6.25C315.51,428.39,316.25,423.55,321,423.38Z" transform="translate(-96.37 -336.62)"/><path class="cls-14" d="M318.94,421.48a14.05,14.05,0,0,1,10.9-4.75L320.76,423Z" transform="translate(-96.37 -336.62)"/><path class="cls-15" d="M805.43,661.59c-2.73-2.22,1-6-1.92-8.15-.94-1.74-.4-3.45.12-5.16,7.78-25.59,7-51.52,3-77.57-.49-3.18-2.19-6.37.07-9.53.46-2-.62-4.24,1.11-6,9.76,25.21,9.35,51.21,5.89,77.4C812.36,642.63,811.47,652.87,805.43,661.59Z" transform="translate(-96.37 -336.62)"/><path class="cls-16" d="M289,681.38q89.82.35,179.62.72a17.48,17.48,0,0,1,3.63.79q-88.9.09-177.79.16C292.47,683.06,290.24,683.65,289,681.38Z" transform="translate(-96.37 -336.62)"/><path class="cls-17" d="M806.69,561.18c6.91,23.83,5.52,48,3.14,72.25a47.52,47.52,0,0,1-6.32,20c-5,5.33-8.79,3.07-12.06-2-4.62-7.17-4.91-15.45-5.44-23.5-1.18-18.08.29-36.11,2.73-54,.8-5.85,4.82-10.6,9-14.76C801.44,555.38,804.43,557.2,806.69,561.18Z" transform="translate(-96.37 -336.62)"/><path class="cls-18" d="M827.44,666.07c-7.13-2.53-15.09-.94-22-4.48,0-3.06,2.58-7-2.74-8.27-5.82,1.23-9.14-1.62-11.1-6.75A57.09,57.09,0,0,1,789,636.26c-3.41-18.56-.33-37,1.09-55.39a31.09,31.09,0,0,1,5.13-15.74c2.83-4.1,6.08-6,10.93-3.91,3-1.33.68-4.13,1.68-6l.6-.37c-1.75-3.08-2.84-7.94-5.39-8.88-5.17-1.91-4.73-5.2-3.87-10.26-5.41,7.29-8.57,14.23-11.86,21.06A215.25,215.25,0,0,0,773.2,596.9c-5.34,20.91-15.12,29.71-36.64,32.83-21.31,3.09-42.61-.37-63.92-.28-8.14,0-6.76-5.39-6.06-10.46,4.16-30.13,1.08-58.4-21.72-81.79l13.76-8.47q11.63-6,23.1-12.32a5.68,5.68,0,0,0,3.28-3.94,3.27,3.27,0,0,0-.14-.33l.37.07,9.79-4.1c22.74-9.57,46.13-16.9,70.56-20.67L784,483h0c5.79-1.32,8.39,1.46,10.46,6.73,6.82,17.34,13.19,34.81,18.39,52.71,1.34-28.59-3.78-55.2-24.38-76.78-1.58-1.66-3.8-4.73-7.14-3.94.32,3.36,3.36,5.29,3.12,8.6-8.93,2-18.2,1.71-26.88,4.7h0c-6.18,0-12,1.86-18,3.15-40.49,8.85-79.21,22.13-114,45.39-9.3,6.23-16.8,13.77-21.8,23.92-5.39,10.92-10.85,21.86-17,32.35-12.9,21.92-30.24,37-57.51,38-30.29,1-60.54-.41-90.79-.74-57.78-.62-115.56-2.1-173.34-1.35-18.06.23-36-.57-54.06-.84-3.07,0-1.8-1.67-1.81-2.64-.19-30.85,1.29-61.54,9.84-91.44,1.78-6.21,2.18-14.42,12.58-11.21.19.06.63-.69,1.06-1.17-3.19-2.55-9.26-3.89-7.71-9,3.14-10.26,6.74-20.58,15.66-28.9,1.78,10,2.61,19.57,12.38,24.33a37.57,37.57,0,0,0-2.36-9.33c-6.22-18.49-5.47-20.16,11.79-28.89,5.58-2.83,11.51-5.23,15.81-10.2-8.53,1.9-16.63,4.7-24.85,7.1-10.76,3.15-20.31,8.12-27.12,17.31-2.24,3-5.39,3.52-8.6,4.2-13.71,2.93-26.33,8.4-39.4,16.65,12.75,1.3,24.15-2.65,36.68-.1-6.62,9-2.3,22.79-15.69,27.26,2,1.92,5.44-.95,6.62,2.18,1.41,3.72-3.66,14.78-8.66,17.92,4.43-.61,6,.17,5.38,4.53a134,134,0,0,0-1.14,20.54c0,7.44.69,14.88,1.16,23.9-4.19-4.62-8.44-4.49-12.68-4.27-17,.86-34.07,1.1-51-1-3.56-.44-4.32.53-3.71,4.18a84,84,0,0,0,15.08,35.43c-.06,1.65,2,3.61-.7,4.88-6.18.48-12.42,1-18.6,1.39-6.92.43-13.81,2.42-20.81,1.19a17.13,17.13,0,0,0-13.84,4.56c1.73,2.78,4.69,2.66,7.39,3.07,35.22,5.35,70.8,6.32,106.26,8.64,11.55.76,15.35,3.16,20,15-19.63,2-39.6,1.29-58.69,8.12a21,21,0,0,0,8.45,3.12c22.65,3.23,45.45,4.75,68.26,6.24,13.65.89,27.29,1.87,40.93,2.81,2.56,1.72,5.44.85,8.15.85q83.4.09,166.81.08c2.76,0,5.59-.56,8.28.58q42.33,0,84.66,0c74.73.12,149.46.37,224.09-4.53,15.45-1,31-1.53,46.18-4.8,2.58-.56,6.69-.82,6.8-3.82C834,666.46,829.89,667,827.44,666.07Zm-277.53-8.51c-13.46.61-26.93.23-40.4.25q-90.75.08-181.49,0c-2.74,0-5.59.72-8.23-.71,1.49-6.84,5-11.05,12.73-10.22,5.89.64,11.93-1.11,17.74,1.07-2.09,1.29-4.36.36-6,.78H443.4q50.73,0,101.45,0c2.51,0,5.29-.48,6.81,2.26S552.31,655.85,549.91,657.56Zm52.14-4.39c-9.46-10.85-13.86-24-17-37.73-.4-1.82-.58-3.68.79-5.05,12.47-12.43,15.7-29.18,21.16-44.9,1.58-4.54,4-8.85,5.14-13.48,1.89-7.52,6.63-7.77,12.7-6.07,13.55,3.78,22.13,12.88,27.28,25.54a83.52,83.52,0,0,1,6.38,31.14c-.29,18-5.52,34.51-16.14,49S613.82,666.68,602.05,653.17Zm135.27,5.17c-14.69-.78-29.37-1.8-44.1-1.85-9.63,0-19.27,0-28.9,0-2.43,0-6.29.82-6.66-1.83a8.6,8.6,0,0,1,4.09-8.35,22.26,22.26,0,0,1,10.85-2.87c22.32-.11,44.42-4.08,66.8-4,5.66,0,6.88,1.81,7.91,6.28C750.33,658.82,750.42,659,737.32,658.34Z" transform="translate(-96.37 -336.62)"/><path class="cls-19" d="M110.11,631.28a224.87,224.87,0,0,1,42.64-3.37c-8.07,3.22-16.75,2.31-25.06,2.79C121.93,631,116,634.67,110.11,631.28Z" transform="translate(-96.37 -336.62)"/><path class="cls-20" d="M647.47,524l.37,1.33-.52.29a3.6,3.6,0,0,1-2.57.48,3.09,3.09,0,0,1-2-1.48,1.8,1.8,0,0,1-.32-1.59,3,3,0,0,1,1.43-1.34,3.13,3.13,0,0,1,1.6-.51,1.21,1.21,0,0,1,1,.66,1.76,1.76,0,0,1,.25,1.21,5.14,5.14,0,0,1-.68,1.64,5.06,5.06,0,0,0,1-.43ZM644,519.61c0,.48.1,1,.14,1.44-.35.19-.7.38-1,.58l-.21-1.4Zm.67,4.7a3.59,3.59,0,0,0,.51-.91.69.69,0,0,0,0-.58c-.1-.15-.28-.15-.56,0-.48.27-.59.62-.33,1l.15.21A1.76,1.76,0,0,0,644.63,524.31Z" transform="translate(-96.37 -336.62)"/><path class="cls-20" d="M648.92,519l1.05,1-.86.47a1.09,1.09,0,0,0-.54.48.59.59,0,0,0,.08.56,1.52,1.52,0,0,0,1.07.77,2.36,2.36,0,0,0,1.5-.33c.11.44.23.88.34,1.33a3.42,3.42,0,0,1-2.48.4,3,3,0,0,1-1.93-1.45c-.68-1.11-.39-2,.89-2.71Z" transform="translate(-96.37 -336.62)"/><path class="cls-20" d="M651.74,517.36a3.22,3.22,0,0,1,1.86-.48,1.77,1.77,0,0,1,1.23,1,3.73,3.73,0,0,1,.57,2.38,2,2,0,0,1-1,1.66,2.25,2.25,0,0,1-2,0,4.08,4.08,0,0,1-1.85-1.7,1.59,1.59,0,0,1-.22-1.51A3.1,3.1,0,0,1,651.74,517.36Zm.68,1.21c-.48.25-.59.58-.35,1a2.87,2.87,0,0,0,.83.9c.34.25.6.32.77.23s.23-.33.2-.71a2.47,2.47,0,0,0-.36-1.09A.74.74,0,0,0,652.42,518.57Z" transform="translate(-96.37 -336.62)"/><path class="cls-20" d="M655.12,513.73c1.14,1.95,2.26,3.9,3.38,5.85l-1.46.75c-1.12-2-2.26-3.89-3.4-5.83Z" transform="translate(-96.37 -336.62)"/><path class="cls-20" d="M662.31,516.14c.11.45.21.9.32,1.35l-.54.26a3.67,3.67,0,0,1-2.62.39,3.11,3.11,0,0,1-1.94-1.55,1.79,1.79,0,0,1-.25-1.61,3.12,3.12,0,0,1,1.51-1.28,3.19,3.19,0,0,1,1.63-.45,1.22,1.22,0,0,1,1,.7,1.76,1.76,0,0,1,.19,1.22,5,5,0,0,1-.76,1.61,5.52,5.52,0,0,0,1-.39Zm-2.88.26a3.94,3.94,0,0,0,.56-.89.67.67,0,0,0,0-.58c-.09-.16-.28-.16-.57,0-.49.25-.62.59-.37,1a1.91,1.91,0,0,0,.14.21A1.66,1.66,0,0,0,659.43,516.4Z" transform="translate(-96.37 -336.62)"/><path class="cls-20" d="M665.43,508.61l1.51-.72c1.09,2,2.15,3.95,3.21,5.94l-1.07.51a4,4,0,0,1-2.72.39,3,3,0,0,1-2-1.59,1.74,1.74,0,0,1-.24-1.48,2.55,2.55,0,0,1,1.32-1.13l.79-.38C666,509.64,665.71,509.12,665.43,508.61Zm1.49,2.73-.41.19a1.32,1.32,0,0,0-.59.45.67.67,0,0,0,.09.59,1.68,1.68,0,0,0,2,.79Z" transform="translate(-96.37 -336.62)"/><path class="cls-20" d="M674.12,510.5c.1.45.19.9.28,1.35l-.55.25a3.74,3.74,0,0,1-2.66.31,3.06,3.06,0,0,1-1.9-1.61,1.76,1.76,0,0,1-.2-1.61,3.09,3.09,0,0,1,1.56-1.23,3.32,3.32,0,0,1,1.67-.41,1.23,1.23,0,0,1,1,.73,1.71,1.71,0,0,1,.15,1.22,5.07,5.07,0,0,1-.83,1.59,5.41,5.41,0,0,0,1-.36Zm-2.91.18a3.84,3.84,0,0,0,.59-.88.7.7,0,0,0,.07-.58q-.14-.24-.57,0c-.51.23-.65.57-.42,1l.13.22Z" transform="translate(-96.37 -336.62)"/><path class="cls-20" d="M677.34,503.14l1,1-.68.29a.89.89,0,0,0-.37.25c0,.07,0,.18.08.35l.92-.41c.19.39.39.78.59,1.17l-.91.4c.56,1.09,1.11,2.19,1.66,3.28l-1.52.68-1.68-3.28-.34.15-.6-1.16.34-.15-.06-.11v0l0,0a1.49,1.49,0,0,1-.2-1.23,1.79,1.79,0,0,1,1-.84Z" transform="translate(-96.37 -336.62)"/><path class="cls-20" d="M680.8,503.43a3.31,3.31,0,0,1,1.94-.34,1.77,1.77,0,0,1,1.18,1.05,3.7,3.7,0,0,1,.38,2.42,2,2,0,0,1-1.2,1.57A2.28,2.28,0,0,1,681,508a4.1,4.1,0,0,1-1.74-1.82,1.57,1.57,0,0,1-.1-1.53A3.2,3.2,0,0,1,680.8,503.43Zm.6,1.25c-.51.22-.66.54-.44,1a3,3,0,0,0,.77,1c.33.26.58.35.77.28s.26-.31.26-.69a2.67,2.67,0,0,0-.27-1.11A.75.75,0,0,0,681.4,504.68Z" transform="translate(-96.37 -336.62)"/><path class="cls-20" d="M683.76,502.29l1.51-.63.13.27a1.55,1.55,0,0,1,.33-.48,2.35,2.35,0,0,1,.59-.32l.61,1.26a1.89,1.89,0,0,0-.56.39,1.19,1.19,0,0,0-.23.52c.46.94.92,1.89,1.37,2.83l-1.55.65C685.24,505.28,684.5,503.78,683.76,502.29Z" transform="translate(-96.37 -336.62)"/><path class="cls-20" d="M687,501q2.25-.93,4.51-1.83a2.84,2.84,0,0,1,1.83-.28,2.62,2.62,0,0,1,1.12,1.43l1.2,2.58-1.58.62c-.37-.81-.75-1.62-1.13-2.44l-.12-.25a.87.87,0,0,0-.36-.45.94.94,0,0,0-.59.1l-.24.09c.52,1.1,1,2.2,1.54,3.3l-1.56.63-1.56-3.29-.9.36,1.56,3.29-1.56.64C688.45,503.94,687.73,502.45,687,501Z" transform="translate(-96.37 -336.62)"/><path class="cls-20" d="M698.69,496.36q1,2.26,2,4.55l-1.12.42a4.14,4.14,0,0,1-2.79.18,3,3,0,0,1-1.84-1.69,1.56,1.56,0,0,1,0-1.55,3.13,3.13,0,0,1,1.62-1.11Zm-1,1.83-.39.14a1.36,1.36,0,0,0-.65.41.57.57,0,0,0,0,.56,1.7,1.7,0,0,0,.8.83,1.76,1.76,0,0,0,1.16.15Z" transform="translate(-96.37 -336.62)"/><path class="cls-20" d="M700.68,494.07l.6,1.32.85-.31.54,1.21-.85.31.7,1.57c.11.26.21.4.3.44a1,1,0,0,0,.55-.1l.43-.16c.06.46.11.91.17,1.37l-.74.27a1.84,1.84,0,0,1-1.34.1,2.3,2.3,0,0,1-.89-1.15l-.78-1.75-.37.13-.54-1.2.37-.13c-.13-.3-.27-.6-.4-.89Z" transform="translate(-96.37 -336.62)"/><path class="cls-20" d="M703.68,492.65l.54,1.23-1.62.59c-.18-.41-.36-.82-.55-1.23Zm.71,1.62c.67,1.52,1.34,3.05,2,4.58l-1.6.58q-1-2.3-2-4.58Z" transform="translate(-96.37 -336.62)"/><path class="cls-20" d="M707.46,493.06a3.46,3.46,0,0,1,2-.22,1.79,1.79,0,0,1,1.13,1.12,3.68,3.68,0,0,1,.22,2.44,2.05,2.05,0,0,1-1.33,1.5,2.4,2.4,0,0,1-2.09-.31,4.08,4.08,0,0,1-1.65-1.93,1.54,1.54,0,0,1,0-1.52A3.26,3.26,0,0,1,707.46,493.06Zm.52,1.29c-.53.18-.7.5-.51.93a2.92,2.92,0,0,0,.72,1c.32.28.57.39.76.33s.29-.29.31-.67a2.34,2.34,0,0,0-.2-1.13A.77.77,0,0,0,708,494.35Z" transform="translate(-96.37 -336.62)"/><path class="cls-20" d="M710.56,492.11l2.32-.78a2.91,2.91,0,0,1,1.81-.18,2.22,2.22,0,0,1,1,1.33l1.14,2.8-1.63.53-1-2.47a1.87,1.87,0,0,0-.43-.74,1.15,1.15,0,0,0-.74.1l-.31.1c.47,1.13.94,2.25,1.4,3.38l-1.63.55Q711.53,494.42,710.56,492.11Z" transform="translate(-96.37 -336.62)"/><path class="cls-20" d="M718.55,489.49l1.6-.51c0,.09.07.18.11.28a1.33,1.33,0,0,1,.38-.45,2.79,2.79,0,0,1,.63-.27c.17.43.34.87.52,1.3a1.92,1.92,0,0,0-.61.35,1,1,0,0,0-.28.5c.39,1,.77,1.95,1.15,2.93l-1.64.51Q719.49,491.8,718.55,489.49Z" transform="translate(-96.37 -336.62)"/><path class="cls-20" d="M724.18,487.62a3.63,3.63,0,0,1,2-.14,1.79,1.79,0,0,1,1.1,1.17,3.63,3.63,0,0,1,.13,2.44,2.08,2.08,0,0,1-1.41,1.45,2.48,2.48,0,0,1-2.1-.39,4.07,4.07,0,0,1-1.6-2,1.57,1.57,0,0,1,.06-1.53A3.42,3.42,0,0,1,724.18,487.62Zm.48,1.31c-.55.17-.73.47-.56.91a2.85,2.85,0,0,0,.7,1c.3.3.56.41.75.35s.31-.27.35-.65a2.49,2.49,0,0,0-.16-1.14A.79.79,0,0,0,724.66,488.93Z" transform="translate(-96.37 -336.62)"/><path class="cls-20" d="M731.86,485.51q.89,2.34,1.74,4.7l-2.16.61a3.74,3.74,0,0,1-2.19.15,2,2,0,0,1-1.15-1.33,4.59,4.59,0,0,1-.24-1.33,8.11,8.11,0,0,1,.09-1.68l1.73-.5a7.44,7.44,0,0,0,.08,2.88.87.87,0,0,0,.46.56,1.41,1.41,0,0,0,.87-.05l.37-.11L730.17,486Z" transform="translate(-96.37 -336.62)"/><path class="cls-20" d="M734.1,483.38l.51,1.37.9-.25.45,1.24-.9.25.6,1.62c.09.27.18.42.27.46a1,1,0,0,0,.57-.06l.46-.12.06,1.38-.77.21a1.9,1.9,0,0,1-1.39,0,2.25,2.25,0,0,1-.82-1.21l-.66-1.81-.39.11c-.15-.41-.3-.83-.46-1.24l.39-.11c-.11-.31-.23-.61-.34-.92Z" transform="translate(-96.37 -336.62)"/><path class="cls-20" d="M737.28,482.2l.46,1.27-1.7.46c-.16-.43-.32-.85-.47-1.28Zm.6,1.66c.57,1.58,1.14,3.15,1.69,4.73l-1.69.45q-.84-2.37-1.7-4.72Z" transform="translate(-96.37 -336.62)"/><path class="cls-20" d="M739.17,481.6l1.33-.34,1,1.11-1.25.32Zm5.14,4.38c0,.46,0,.92,0,1.38l-.61.16a4.24,4.24,0,0,1-2.84-.15,3.12,3.12,0,0,1-1.7-1.9,1.67,1.67,0,0,1,.08-1.62,3.3,3.3,0,0,1,1.85-1,3.67,3.67,0,0,1,1.81-.12,1.27,1.27,0,0,1,.88.89,1.55,1.55,0,0,1-.06,1.23,4.86,4.86,0,0,1-1.14,1.42,6.61,6.61,0,0,0,1.12-.18Zm-3.08-.31a4,4,0,0,0,.77-.77.63.63,0,0,0,.17-.56c-.06-.17-.25-.21-.59-.13-.57.15-.78.46-.61.93a1.33,1.33,0,0,0,.1.24A1.82,1.82,0,0,0,741.23,485.67Z" transform="translate(-96.37 -336.62)"/><path class="cls-20" d="M744.09,482.27l1.66-.41c0,.1.07.19.1.28a1.5,1.5,0,0,1,.41-.42,2.89,2.89,0,0,1,.66-.23c.15.44.31.88.46,1.33a2.07,2.07,0,0,0-.65.31,1.14,1.14,0,0,0-.31.48c.34,1,.68,2,1,3l-1.71.41C745.19,485.44,744.64,483.85,744.09,482.27Z" transform="translate(-96.37 -336.62)"/><path class="cls-20" d="M753.1,483.89c0,.46,0,.92,0,1.38l-.63.14a4.24,4.24,0,0,1-2.85-.2,3.13,3.13,0,0,1-1.68-1.94,1.64,1.64,0,0,1,.11-1.61,3.28,3.28,0,0,1,1.88-.92,3.8,3.8,0,0,1,1.83-.09,1.27,1.27,0,0,1,.87.91,1.57,1.57,0,0,1-.08,1.22,4.85,4.85,0,0,1-1.18,1.41,6.61,6.61,0,0,0,1.13-.17Zm-3.1-.38a3.85,3.85,0,0,0,.79-.75.67.67,0,0,0,.19-.55c-.06-.17-.26-.22-.6-.14-.58.13-.79.44-.63.91a2.07,2.07,0,0,0,.09.24A1.82,1.82,0,0,0,750,483.51Z" transform="translate(-96.37 -336.62)"/><path class="cls-20" d="M758.34,480.9l.82.52.26.17a1.63,1.63,0,0,1,.72.87c.25.8-.19,1.32-1.31,1.56l-1.47.31-.85-1.2,1.09-.23.41-.09c.21-.05.31-.11.28-.21s-.14-.15-.32-.19l-.39-.12-.75-.5-.31-.2a1.66,1.66,0,0,1-.69-.82c-.25-.77.23-1.28,1.44-1.54l1.12-.24.86,1.2-.81.17-.41.09c-.25.05-.36.13-.33.22s.13.13.31.16A.62.62,0,0,1,758.34,480.9Z" transform="translate(-96.37 -336.62)"/><path class="cls-20" d="M761.06,476.94c.15.47.29.94.44,1.4l.93-.19c.13.43.27.85.4,1.27l-.94.19c.18.55.35,1.11.52,1.66.08.27.16.43.25.47a1,1,0,0,0,.58,0l.49-.09c0,.46,0,.92,0,1.38l-.81.16a2,2,0,0,1-1.41-.09,2.25,2.25,0,0,1-.77-1.27l-.57-1.84-.41.08c-.13-.42-.26-.84-.4-1.26l.41-.09-.3-.93Z" transform="translate(-96.37 -336.62)"/><path class="cls-20" d="M767.21,475.42c.67,2.18,1.31,4.36,1.95,6.54l-1.76.33q-1-3.27-2-6.53Z" transform="translate(-96.37 -336.62)"/><path class="cls-20" d="M771.11,476.39a3.71,3.71,0,0,1,2.12.08,1.8,1.8,0,0,1,1,1.28,3.43,3.43,0,0,1-.11,2.44,2.11,2.11,0,0,1-1.61,1.29,2.68,2.68,0,0,1-2.15-.62,4.16,4.16,0,0,1-1.45-2.15,1.49,1.49,0,0,1,.22-1.51A3.49,3.49,0,0,1,771.11,476.39Zm.37,1.35c-.59.1-.81.39-.68.84a2.77,2.77,0,0,0,.62,1.11c.29.33.54.47.75.44s.34-.24.42-.62a2.32,2.32,0,0,0-.05-1.14A.82.82,0,0,0,771.48,477.74Z" transform="translate(-96.37 -336.62)"/><path class="cls-20" d="M775.79,473.89l.38,1.31-1.8.31c-.12-.44-.25-.88-.38-1.31Zm.49,1.72c.46,1.62.92,3.24,1.36,4.86l-1.78.3q-.68-2.43-1.37-4.86Z" transform="translate(-96.37 -336.62)"/><path class="cls-20" d="M779.92,476.9l.81.57.25.18a1.6,1.6,0,0,1,.7.9c.22.81-.25,1.31-1.41,1.49l-1.5.24L778,479l1.12-.18.42-.07c.22,0,.32-.09.3-.19s-.13-.15-.32-.21a1.76,1.76,0,0,1-.39-.14l-.74-.53-.31-.22a1.61,1.61,0,0,1-.67-.85c-.22-.78.29-1.27,1.54-1.47l1.15-.19.82,1.25-.84.13-.41.06c-.26.05-.38.12-.35.22s.13.13.31.16A.89.89,0,0,1,779.92,476.9Z" transform="translate(-96.37 -336.62)"/><path class="cls-20" d="M786.79,477.69c0,.46,0,.92-.07,1.38l-.66.09a4.5,4.5,0,0,1-2.92-.42,3.22,3.22,0,0,1-1.6-2.06,1.63,1.63,0,0,1,.23-1.61,3.53,3.53,0,0,1,2-.77,4,4,0,0,1,1.88.06,1.32,1.32,0,0,1,.84,1,1.54,1.54,0,0,1-.17,1.22,4.78,4.78,0,0,1-1.3,1.31,6.27,6.27,0,0,0,1.17-.07Zm-3.16-.62a4.62,4.62,0,0,0,.87-.68c.19-.22.26-.4.22-.54s-.25-.24-.6-.19c-.61.09-.84.38-.71.87,0,.09.05.17.07.24A2.07,2.07,0,0,0,783.63,477.07Z" transform="translate(-96.37 -336.62)"/></svg>